<svg xmlns="http://www.w3.org/2000/svg" xmlns:xlink="http://www.w3.org/1999/xlink" xmlns:lucid="lucid" width="1684" height="1576"><g transform="translate(-218 0)" lucid:page-tab-id="m-5o7ONTd-nK"><path d="M310.36 182.04a8 8 0 0 1 8-8H650a8 8 0 0 1 8 8v42.8a8 8 0 0 1-8 8H318.37a8 8 0 0 1-8-8z" stroke="#000" stroke-width="2" fill="#54c45e"/><use xlink:href="#a" transform="matrix(1,0,0,1,315.92336606557404,179.5999191099905) translate(100.00214595574847 37.60444786960758)"/><path d="M875.67 580.25l.45 1.06-.45 1.07-1.05.44-1.07-.43-.43-1.06.43-1.05 1.07-.44zm-11.98 0l.43 1.06-.44 1.07-1.07.44-1.06-.43-.44-1.06.44-1.05 1.06-.44zm-12 0l.45 1.06-.44 1.07-1.05.44-1.06-.43-.45-1.06.44-1.05 1.05-.44zm-11.97 0l.44 1.06-.44 1.07-1.06.44-1.06-.43-.43-1.06.44-1.05 1.07-.44zm-11.98 0l.44 1.06-.45 1.07-1.06.44-1.08-.43-.43-1.06.42-1.05 1.07-.44zm-12 0l.45 1.06-.44 1.07-1.06.44-1.06-.43-.44-1.06.44-1.05 1.06-.44zm-11.97 0l.44 1.06-.44 1.07-1.06.44-1.06-.43-.44-1.06.44-1.05 1.06-.44zm-11.98 0l.44 1.06-.44 1.07-1.06.44-1.06-.43-.44-1.06.44-1.05 1.06-.44zm-11.98 0l.44 1.06-.44 1.07-1.06.44-1.06-.43-.44-1.06.44-1.05 1.06-.44zm-11.98 0l.43 1.06-.43 1.07-1.07.44-1.06-.43-.43-1.06.44-1.05 1.07-.44zm-12 0l.45 1.06-.45 1.07-1.06.44-1.07-.43-.44-1.06.43-1.05 1.06-.44zm-11.97 0l.44 1.06-.43 1.07-1.06.44-1.05-.43-.44-1.06.45-1.05 1.06-.44zm-11.98 0l.43 1.06-.44 1.07-1.07.44-1.06-.43-.44-1.06.44-1.05 1.06-.44zm-12 0l.45 1.06-.44 1.07-1.05.44-1.06-.43-.45-1.06.44-1.05 1.05-.44zm-11.98 0l.44 1.06-.44 1.07-1.06.44-1.06-.43-.44-1.06.44-1.05 1.06-.44zm-11.98 0l.44 1.06-.44 1.07-1.06.44-1.06-.43-.44-1.06.44-1.05 1.06-.44zm-11.98 0l.44 1.06-.44 1.07-1.06.44-1.06-.43-.44-1.06.44-1.05 1.06-.44zm-11.98 0l.44 1.06-.44 1.07-1.06.44-1.06-.43-.44-1.06.44-1.05 1.06-.44zm-11.98 0l.43 1.06-.43 1.07-1.07.44-1.05-.43-.45-1.06.45-1.05 1.05-.44zm-12 0l.45 1.06-.44 1.07-1.05.44-1.06-.43-.45-1.06.44-1.05 1.05-.44zm-11.97 0l.44 1.06-.44 1.07-1.06.44-1.06-.43-.43-1.06.44-1.05 1.07-.44zm-11.98 0l.44 1.06-.45 1.07-1.06.44-1.07-.43-.44-1.06.43-1.05 1.06-.44zm-11.98 0l.44 1.06-.43 1.07-1.06.44-1.05-.43-.44-1.06.45-1.05 1.06-.44zm-12 0l.45 1.06-.43 1.07-1.08.44-1.06-.43-.44-1.06.44-1.05 1.06-.44zm-11.97 0l.44 1.06-.44 1.07-1.06.44-1.06-.43-.44-1.06.44-1.05 1.06-.44zm-11.98 0l.44 1.06-.44 1.07-1.06.44-1.06-.43-.44-1.06.44-1.05 1.06-.44zm-11.98 0l.44 1.06-.44 1.07-1.06.44-1.06-.43-.44-1.06.44-1.05 1.06-.44zm-11.98 0l.44 1.06-.44 1.07-1.06.44-1.07-.43-.43-1.06.43-1.05 1.07-.44zm-12 0l.45 1.06-.43 1.07-1.06.44-1.05-.43-.44-1.06.45-1.05 1.06-.44zm-11.97 0l.43 1.06-.44 1.07-1.07.44-1.06-.43-.44-1.06.44-1.05 1.06-.44zm-12 0l.45 1.06-.44 1.07-1.05.44-1.06-.43-.45-1.06.44-1.05 1.05-.44zm-11.97 0l.44 1.06-.44 1.07-1.06.44-1.06-.43-.43-1.06.44-1.05 1.07-.44zm-11.98 0l.44 1.06-.45 1.07-1.06.44-1.08-.43-.44-1.06.44-1.05 1.06-.44zm-12 0l.45 1.06-.44 1.07-1.06.44-1.06-.43-.44-1.06.44-1.05 1.06-.44zm-11.97 0l.44 1.06-.44 1.07-1.06.44-1.06-.43-.44-1.06.44-1.05 1.06-.44zm-11.98 0l.44 1.06-.44 1.07-1.06.44-1.06-.43-.44-1.06.44-1.05 1.06-.44zm-11.98 0l.44 1.06-.44 1.07-1.06.44-1.06-.43-.44-1.06.44-1.05 1.06-.44zm-12 0l.45 1.06-.44 1.07-1.06.44-1.06-.43-.43-1.06.44-1.05 1.07-.44zm-11.97 0l.44 1.06-.45 1.07-1.06.44-1.07-.43-.44-1.06.43-1.05 1.06-.44zm-11.98 0l.44 1.06-.43 1.07-1.06.44-1.05-.43-.44-1.06.45-1.05 1.06-.44zm-11.98 0l.43 1.06-.44 1.07-1.07.44-1.06-.43-.44-1.06.44-1.05 1.06-.44zm-12 0l.45 1.06-.44 1.07-1.05.44-1.06-.43-.45-1.06.44-1.05 1.05-.44zm-11.98 0l.44 1.06-.44 1.07-1.06.44-1.06-.43-.44-1.06.44-1.05 1.06-.44zm-11.98 0l.44 1.06-.44 1.07-1.06.44-1.06-.43-.44-1.06.44-1.05 1.06-.44zm-11.98 0l.44 1.06-.44 1.07-1.06.44-1.06-.43-.44-1.06.44-1.05 1.06-.44zm-11.98 0l.44 1.06-.44 1.07-1.06.44-1.06-.43-.44-1.06.44-1.05 1.06-.44zm-12 0l.45 1.06-.44 1.07-1.06.44-1.07-.43-.44-1.06.44-1.05 1.06-.44zm-11.97 0l.45 1.06-.44 1.07-1.05.44-1.06-.43-.45-1.06.44-1.05 1.05-.44zm-11.97 0l.44 1.06-.44 1.07-1.06.44-1.06-.43-.43-1.06.44-1.05 1.07-.44zm-11.98 0l.44 1.06-.45 1.07-1.06.44-1.07-.43-.44-1.06.43-1.05 1.06-.44zm-11.98 0l.44 1.06-.43 1.07-1.06.44-1.06-.43-.43-1.06.44-1.05 1.07-.44zm-12 0l.45 1.06-.44 1.07-1.06.44-1.06-.43-.44-1.06.44-1.05 1.06-.44zm-11.97 0l.44 1.06-.44 1.07-1.06.44-1.06-.43-.44-1.06.44-1.05 1.06-.44zm-11.98 0l.44 1.06-.44 1.07-1.06.44-1.06-.43-.44-1.06.44-1.05 1.06-.44zm-11.98 0l.44 1.06-.44 1.07-1.06.44-1.06-.43-.44-1.06.44-1.05 1.06-.44zm-11.98 0l.44 1.06-.44 1.07-1.06.44-1.07-.43-.44-1.06.43-1.05 1.06-.44zm-12 0l.45 1.06-.43 1.07-1.06.44-1.05-.43-.44-1.06.45-1.05 1.06-.44zm-11.97 0l.43 1.06-.44 1.07-1.07.44-1.06-.43-.44-1.06.44-1.05 1.06-.44zm-12 0l.45 1.06-.44 1.07-1.05.44-1.06-.43-.45-1.06.44-1.05 1.05-.44zm-11.97 0l.44 1.06-.44 1.07-1.06.44-1.06-.43-.43-1.06.44-1.05 1.07-.44zm-11.98 0l.43 1.06-.44 1.07-1.06.44-1.06-.43-.44-1.06.44-1.05 1.06-.44zm-12 0l.45 1.06-.44 1.07-1.06.44-1.06-.43-.44-1.06.44-1.05 1.06-.44zm-11.97 0l.44 1.06-.44 1.07-1.06.44-1.06-.43-.44-1.06.44-1.05 1.06-.44zm-11.98 0l.44 1.06-.44 1.07-1.06.44-1.06-.43-.44-1.06.44-1.05 1.06-.44zm-11.98 0l.44 1.06-.44 1.07-1.06.44-1.07-.43-.44-1.06.43-1.05 1.06-.44zm-12 0l.45 1.06-.44 1.07-1.06.44-1.06-.43-.43-1.06.44-1.05 1.07-.44zm-11.97 0l.44 1.06-.45 1.07-1.06.44-1.07-.43-.44-1.06.43-1.05 1.06-.44zm-11.98 0l.44 1.06-.43 1.07-1.06.44-1.05-.43-.44-1.06.45-1.05 1.06-.44zm-11.98 0l.43 1.06-.44 1.07-1.07.44-1.06-.43-.44-1.06.44-1.05 1.06-.44zm-12 0l.45 1.06-.45 1.07-1.05.44-1.07-.43-.44-1.06.44-1.05 1.06-.44zm1966.65-1.57l.44 1.06-.45 1.06-1.06.44-1.07-.44-.44-1.06.43-1.06 1.06-.44zm-11.98 0l.44 1.06-.43 1.06-1.06.44-1.05-.44-.44-1.06.45-1.06 1.06-.44zm-11.98 0l.43 1.06-.44 1.06-1.07.44-1.06-.44-.44-1.06.44-1.06 1.06-.44zm-12 0l.45 1.06-.44 1.06-1.05.44-1.06-.44-.45-1.06.44-1.06 1.05-.44zm-11.97 0l.43 1.06-.43 1.06-1.07.44-1.06-.44-.43-1.06.43-1.06 1.07-.44zm-12 0l.45 1.06-.44 1.06-1.06.44-1.06-.44-.44-1.06.44-1.06 1.06-.44zm-11.97 0l.44 1.06-.44 1.06-1.06.44-1.06-.44-.44-1.06.44-1.06 1.06-.44zm-11.98 0l.44 1.06-.44 1.06-1.06.44-1.06-.44-.44-1.06.44-1.06 1.06-.44zm-11.98 0l.44 1.06-.44 1.06-1.06.44-1.07-.44-.43-1.06.43-1.06 1.07-.44zm-12 0l.45 1.06-.44 1.06-1.05.44-1.06-.44-.45-1.06.44-1.06 1.05-.44zm-11.97 0l.44 1.06-.44 1.06-1.06.44-1.06-.44-.43-1.06.44-1.06 1.07-.44zm-11.98 0l.44 1.06-.45 1.06-1.06.44-1.07-.44-.44-1.06.43-1.06 1.06-.44zm-11.98 0l.44 1.06-.43 1.06-1.06.44-1.05-.44-.44-1.06.45-1.06 1.06-.44zm-11.98 0l.42 1.06-.43 1.06-1.08.44-1.06-.44-.44-1.06.44-1.06 1.06-.44zm-12 0l.44 1.06-.44 1.06-1.06.44-1.06-.44-.44-1.06.44-1.06 1.06-.44zm-11.98 0l.44 1.06-.44 1.06-1.06.44-1.06-.44-.44-1.06.44-1.06 1.06-.44zm-11.98 0l.44 1.06-.44 1.06-1.06.44-1.06-.44-.44-1.06.44-1.06 1.06-.44zm-11.98 0l.44 1.06-.44 1.06-1.06.44-1.06-.44-.44-1.06.44-1.06 1.06-.44zm-11.98 0l.43 1.06-.42 1.06-1.07.44-1.05-.44-.44-1.06.45-1.06 1.06-.44zm-12 0l.45 1.06-.44 1.06-1.07.44-1.06-.44-.44-1.06.44-1.06 1.06-.44zm-11.97 0l.45 1.06-.44 1.06-1.05.44-1.06-.44-.45-1.06.44-1.06 1.05-.44zm-11.97 0l.44 1.06-.44 1.06-1.06.44-1.06-.44-.43-1.06.44-1.06 1.07-.44zm-11.98 0l.43 1.06-.43 1.06-1.07.44-1.06-.44-.43-1.06.42-1.06 1.07-.44zm-12 0l.45 1.06-.44 1.06-1.06.44-1.06-.44-.44-1.06.44-1.06 1.06-.44zm-11.97 0l.44 1.06-.44 1.06-1.06.44-1.06-.44-.44-1.06.44-1.06 1.06-.44zm-11.98 0l.44 1.06-.44 1.06-1.06.44-1.06-.44-.44-1.06.44-1.06 1.06-.44zm-11.98 0l.44 1.06-.44 1.06-1.06.44-1.06-.44-.44-1.06.44-1.06 1.06-.44zm-11.98 0l.43 1.06-.43 1.06-1.07.44-1.06-.44-.43-1.06.44-1.06 1.07-.44zm-12 0l.45 1.06-.45 1.06-1.06.44-1.07-.44-.44-1.06.43-1.06 1.06-.44zm-11.97 0l.44 1.06-.43 1.06-1.06.44-1.05-.44-.44-1.06.45-1.06 1.06-.44zm-11.98 0l.43 1.06-.44 1.06-1.07.44-1.06-.44-.44-1.06.44-1.06 1.06-.44zm-12 0l.45 1.06-.44 1.06-1.05.44-1.07-.44-.43-1.06.43-1.06 1.07-.44zm-11.98 0l.44 1.06-.44 1.06-1.06.44-1.06-.44-.44-1.06.44-1.06 1.06-.44zm-11.98 0l.44 1.06-.44 1.06-1.06.44-1.06-.44-.44-1.06.44-1.06 1.06-.44zm-11.98 0l.44 1.06-.44 1.06-1.06.44-1.06-.44-.44-1.06.44-1.06 1.06-.44zm-11.98 0l.44 1.06-.44 1.06-1.06.44-1.06-.44-.44-1.06.44-1.06 1.06-.44zm-11.98 0l.43 1.06-.43 1.06-1.07.44-1.06-.44-.43-1.06.43-1.06 1.07-.44zm-12 0l.45 1.06-.44 1.06-1.05.44-1.06-.44-.45-1.06.44-1.06 1.05-.44zm-11.97 0l.44 1.06-.44 1.06-1.06.44-1.06-.44-.43-1.06.44-1.06 1.07-.44zm-11.98 0l.44 1.06-.45 1.06-1.06.44-1.07-.44-.44-1.06.43-1.06 1.06-.44zm-11.98 0l.44 1.06-.43 1.06-1.06.44-1.05-.44-.44-1.06.45-1.06 1.06-.44zm-11.98 0l.42 1.06-.43 1.06-1.08.44-1.06-.44-.44-1.06.44-1.06 1.06-.44zm-12 0l.44 1.06-.44 1.06-1.06.44-1.06-.44-.44-1.06.44-1.06 1.06-.44zm-11.98 0l.44 1.06-.44 1.06-1.06.44-1.06-.44-.44-1.06.44-1.06 1.06-.44zm-11.98 0l.44 1.06-.44 1.06-1.06.44-1.06-.44-.44-1.06.44-1.06 1.06-.44zm-11.98 0l.44 1.06-.44 1.06-1.06.44-1.07-.44-.43-1.06.43-1.06 1.07-.44zm-12 0l.45 1.06-.43 1.06-1.06.44-1.05-.44-.44-1.06.45-1.06 1.06-.44zm-11.97 0l.43 1.06-.44 1.06-1.07.44-1.06-.44-.44-1.06.44-1.06 1.06-.44zm-12 0l.45 1.06-.44 1.06-1.05.44-1.06-.44-.45-1.06.44-1.06 1.05-.44zm-11.97 0l.44 1.06-.44 1.06-1.06.44-1.06-.44-.43-1.06.44-1.06 1.07-.44zm-12 0l.45 1.06-.44 1.06-1.06.44-1.06-.44-.43-1.06.42-1.06 1.07-.44zm-11.97 0l.44 1.06-.44 1.06-1.06.44-1.06-.44-.44-1.06.44-1.06 1.06-.44zm-11.98 0l.44 1.06-.44 1.06-1.06.44-1.06-.44-.44-1.06.44-1.06 1.06-.44zm-11.98 0l.44 1.06-.44 1.06-1.06.44-1.06-.44-.44-1.06.44-1.06 1.06-.44zm-11.98 0l.44 1.06-.44 1.06-1.06.44-1.07-.44-.44-1.06.43-1.06 1.06-.44zm-12 0l.45 1.06-.44 1.06-1.06.44-1.06-.44-.43-1.06.44-1.06 1.07-.44zm-11.97 0l.44 1.06-.45 1.06-1.06.44-1.07-.44-.44-1.06.43-1.06 1.06-.44zm-11.98 0l.44 1.06-.43 1.06-1.06.44-1.05-.44-.44-1.06.45-1.06 1.06-.44zm-11.98 0l.43 1.06-.44 1.06-1.07.44-1.06-.44-.44-1.06.44-1.06 1.06-.44zm-12 0l.45 1.06-.44 1.06-1.05.44-1.07-.44-.43-1.06.43-1.06 1.07-.44zm-11.98 0l.44 1.06-.44 1.06-1.06.44-1.06-.44-.44-1.06.44-1.06 1.06-.44zm-11.98 0l.44 1.06-.44 1.06-1.06.44-1.06-.44-.44-1.06.44-1.06 1.06-.44zm-11.98 0l.44 1.06-.44 1.06-1.06.44-1.06-.44-.44-1.06.44-1.06 1.06-.44zm-11.98 0l.44 1.06-.44 1.06-1.06.44-1.06-.44-.44-1.06.44-1.06 1.06-.44zm-12 0l.45 1.06-.44 1.06-1.07.44-1.06-.44-.44-1.06.44-1.06 1.06-.44zm-11.97 0l.45 1.06-.44 1.06-1.05.44-1.06-.44-.45-1.06.44-1.06 1.05-.44zm-11.97 0l.44 1.06-.44 1.06-1.06.44-1.06-.44-.43-1.06.44-1.06 1.07-.44zm-11.98 0l.44 1.06-.45 1.06-1.06.44-1.07-.44-.44-1.06.43-1.06 1.06-.44zm-11.98 0l.43 1.06-.43 1.06-1.07.44-1.06-.44-.44-1.06.44-1.06 1.06-.44zm-12 0l.45 1.06-.44 1.06-1.06.44-1.06-.44-.44-1.06.44-1.06 1.06-.44z" fill="#666"/><path d="M47.88 582.8h-1.54v-3h1.54zM2016 581.24h-1.55v-3h1.54z" stroke="#666" stroke-width=".05" fill="#666"/><use xlink:href="#b" transform="matrix(1,0,0,1,883.0698286065099,561.6752369191643) translate(12.977 26.365395104378898)"/><path d="M761.3 510.35a8 8 0 0 1 8-8h455.34a8 8 0 0 1 8 8v40.94a8 8 0 0 1-8 8H769.3a8 8 0 0 1-8-8z" stroke="#000" stroke-width="2" fill="#eb6b6b"/><use xlink:href="#c" transform="matrix(1,0,0,1,766.8636948223226,507.90942002139997) translate(116.11162332719823 29.240395104378898)"/><use xlink:href="#d" transform="matrix(1,0,0,1,766.8636948223226,507.90942002139997) translate(203.5943433135501 29.240395104378898)"/><path d="M310.36 605.6a8 8 0 0 1 8-8H650a8 8 0 0 1 8 8v93.75a8 8 0 0 1-8 8H318.37a8 8 0 0 1-8-8z" stroke="#000" stroke-width="2" fill="#ff8839"/><use xlink:href="#e" transform="matrix(1,0,0,1,315.9233660655741,603.1712789008681) translate(20.025403293274675 37.69819786960758)"/><use xlink:href="#f" transform="matrix(1,0,0,1,315.9233660655741,603.1712789008681) translate(184.91373793072904 37.69819786960758)"/><use xlink:href="#g" transform="matrix(1,0,0,1,315.9233660655741,603.1712789008681) translate(208.40791183157648 37.69819786960758)"/><use xlink:href="#h" transform="matrix(1,0,0,1,315.9233660655741,603.1712789008681) translate(67.8183460915739 84.04286967401896)"/><path d="M1316.95 96.2c0 4.72-152.52 8.54-340.66 8.54-188.14 0-340.66-3.82-340.66-8.54V27.86c0-4.72 152.5-8.54 340.65-8.54 188.13 0 340.65 3.82 340.65 8.54z" stroke="#000" stroke-opacity="0" stroke-width="2" fill="#019280"/><path d="M1316.95 27.86c0 4.72-152.52 8.54-340.66 8.54-188.14 0-340.66-3.82-340.66-8.54" stroke="#000" stroke-opacity="0" stroke-width="2" fill="none"/><use xlink:href="#i" transform="matrix(1,0,0,1,640.637736913974,41.40112219599915) translate(280.10031561369146 40.35171106091475)"/><path d="M515.9 76.13a8 8 0 0 1 8-8H780a8 8 0 0 1 8 8v54.24c-45.43-10.4-73.74-10.4-90.88-10.4-27.2 0-63.4 10.4-90.62 10.4-16.87 0-45.44 0-90.6-10.4z" stroke="#000" stroke-width="2" fill="#ffdda6"/><path d="M531 81.62a8 8 0 0 1 8-8h256.13a8 8 0 0 1 8 8v54.24c-45.45-10.4-73.75-10.4-90.9-10.4-27.2 0-63.4 10.4-90.6 10.4-16.88 0-45.45 0-90.63-10.4z" stroke="#000" stroke-width="2" fill="#ffdda6"/><path d="M546.12 87.1a8 8 0 0 1 8-8h256.13a8 8 0 0 1 8 8v54.25c-45.45-10.4-73.75-10.4-90.9-10.4-27.2 0-63.4 10.4-90.6 10.4-16.88 0-45.46 0-90.63-10.4z" stroke="#000" stroke-width="2" fill="#ffdda6"/><use xlink:href="#j" transform="matrix(1,0,0,1,551.1218162588009,84.10918052736407) translate(27.911076170510125 29.033289573921515)"/><use xlink:href="#k" transform="matrix(1,0,0,1,551.1218162588009,84.10918052736407) translate(181.96419818702572 29.033289573921515)"/><path d="M1105.67 76.13a8 8 0 0 1 8-8h256.13a8 8 0 0 1 8 8v54.24c-45.45-10.4-73.75-10.4-90.9-10.4-27.2 0-63.4 10.4-90.6 10.4-16.88 0-45.46 0-90.63-10.4z" stroke="#000" stroke-width="2" fill="#ffdda6"/><path d="M1120.8 81.62a8 8 0 0 1 8-8h256.1a8 8 0 0 1 8 8v54.24c-45.43-10.4-73.73-10.4-90.88-10.4-27.2 0-63.4 10.4-90.6 10.4-16.9 0-45.46 0-90.63-10.4z" stroke="#000" stroke-width="2" fill="#ffdda6"/><path d="M1135.9 87.1a8 8 0 0 1 8-8h256.13a8 8 0 0 1 8 8v54.25c-45.44-10.4-73.74-10.4-90.9-10.4-27.2 0-63.4 10.4-90.6 10.4-16.88 0-45.45 0-90.62-10.4z" stroke="#000" stroke-width="2" fill="#ffdda6"/><use xlink:href="#j" transform="matrix(1,0,0,1,1140.9062386422254,84.10918052736407) translate(27.911076170510125 29.033289573921515)"/><use xlink:href="#k" transform="matrix(1,0,0,1,1140.9062386422254,84.10918052736407) translate(181.96419818702572 29.033289573921515)"/><path d="M329.2 279.25a8 8 0 0 1 8-8h290.44a8 8 0 0 1 8 8v30.78a8 8 0 0 1-8 8H337.2a8 8 0 0 1-8-8z" stroke="#000" stroke-width="2" fill-opacity="0"/><use xlink:href="#l" transform="matrix(1,0,0,1,341.20850101187193,283.2472820702318) translate(16.94869452564441 24.30563191307172)"/><use xlink:href="#m" transform="matrix(1,0,0,1,341.20850101187193,283.2472820702318) translate(71.80419340524861 24.30563191307172)"/><use xlink:href="#n" transform="matrix(1,0,0,1,341.20850101187193,283.2472820702318) translate(197.4640519860369 24.30563191307172)"/><path d="M484.2 234.83v5.2a12 12 0 0 1-12 12h-63.13" stroke="#666" stroke-width="2" fill="none"/><path d="M485.2 234.85h-2v-1.02h2z" stroke="#666" stroke-width=".05" fill="#666"/><path d="M408.83 267l-4.4-14.33 9.27.15z" stroke="#666" stroke-width="2" fill="#666"/><path d="M484.2 234.83v5.2a12 12 0 0 0 12 12h46.52" stroke="#666" stroke-width="2" fill="none"/><path d="M485.2 234.85h-2v-1.02h2z" stroke="#666" stroke-width=".05" fill="#666"/><path d="M542.96 267l-4.87-14.18 9.26-.15z" stroke="#666" stroke-width="2" fill="#666"/><path d="M310.36 366.36a8 8 0 0 1 8-8H650a8 8 0 0 1 8 8v42.78a8 8 0 0 1-8 8H318.37a8 8 0 0 1-8-8z" stroke="#000" stroke-width="2" fill="#6db1ff"/><use xlink:href="#o" transform="matrix(1,0,0,1,315.9233660655741,363.9156750122099) translate(78.59991904607239 37.60444786960758)"/><path d="M329.2 463.56a8 8 0 0 1 8-8h290.44a8 8 0 0 1 8 8v30.8a8 8 0 0 1-8 8H337.2a8 8 0 0 1-8-8z" stroke="#000" stroke-width="2" fill-opacity="0"/><use xlink:href="#l" transform="matrix(1,0,0,1,341.208501011872,467.5630379724511) translate(16.94869452564441 24.30563191307172)"/><use xlink:href="#m" transform="matrix(1,0,0,1,341.208501011872,467.5630379724511) translate(71.80419340524861 24.30563191307172)"/><use xlink:href="#n" transform="matrix(1,0,0,1,341.208501011872,467.5630379724511) translate(197.4640519860369 24.30563191307172)"/><path d="M394.55 320.03v6.16a12 12 0 0 0 12 12h76.98a.66.66 0 0 1 .66.65" stroke="#666" stroke-width="2" fill="none"/><path d="M395.55 320.06h-2v-1.03h2z" stroke="#666" stroke-width=".05" fill="#666"/><path d="M484.2 354.12l-4.65-14.27h9.27z" stroke="#666" stroke-width="2" fill="#666"/><path d="M565.87 320.03v6.16a12 12 0 0 1-12 12h-69.02a.66.66 0 0 0-.66.65" stroke="#666" stroke-width="2" fill="none"/><path d="M566.87 320.06h-2v-1.03h2z" stroke="#666" stroke-width=".05" fill="#666"/><path d="M484.2 354.12l-4.65-14.27h9.27z" stroke="#666" stroke-width="2" fill="#666"/><path d="M484.2 419.14v5.2a12 12 0 0 0 12 12h47.3" stroke="#666" stroke-width="2" fill="none"/><path d="M485.2 419.17h-2v-1.03h2z" stroke="#666" stroke-width=".05" fill="#666"/><path d="M543.73 451.33l-4.87-14.2 9.27-.14z" stroke="#666" stroke-width="2" fill="#666"/><path d="M484.2 419.14v5.2a12 12 0 0 1-12 12h-47.32" stroke="#666" stroke-width="2" fill="none"/><path d="M485.2 419.17h-2v-1.03h2z" stroke="#666" stroke-width=".05" fill="#666"/><path d="M424.64 451.33l-4.4-14.34 9.27.14z" stroke="#666" stroke-width="2" fill="#666"/><path d="M482.42 504.35v14.47a12 12 0 0 0 12 12H741.8" stroke="#666" stroke-width="2" fill="none"/><path d="M483.42 504.37h-2v-1.02h2z" stroke="#666" stroke-width=".05" fill="#666"/><path d="M757.07 530.82l-14.27 4.64v-9.28z" stroke="#666" stroke-width="2" fill="#666"/><path d="M841.97 561.3v79.18a12 12 0 0 1-12 12H677.5" stroke="#666" stroke-width="2" fill="none"/><path d="M842.97 561.32h-2v-1.03h2z" stroke="#666" stroke-width=".05" fill="#666"/><path d="M662.25 652.48l14.26-4.64v9.27z" stroke="#666" stroke-width="2" fill="#666"/><path d="M1329.05 894.45c0 4.72-152.5 8.54-340.65 8.54-188.14 0-340.66-3.83-340.66-8.55V826.1c0-4.7 152.52-8.53 340.66-8.53 188.14 0 340.65 3.82 340.65 8.54z" stroke="#000" stroke-opacity="0" stroke-width="2" fill="#019280"/><path d="M1329.05 826.1c0 4.73-152.5 8.55-340.65 8.55-188.14 0-340.66-3.82-340.66-8.54" stroke="#000" stroke-opacity="0" stroke-width="2" fill="none"/><use xlink:href="#p" transform="matrix(1,0,0,1,652.7413068601601,839.6539184420465) translate(280.10031561369146 40.35171106091475)"/><path d="M308.6 951.4a8 8 0 0 1 8-8h331.65a8 8 0 0 1 8 8v42.8a8 8 0 0 1-8 8H316.6a8 8 0 0 1-8-8z" stroke="#000" stroke-width="2" fill="#54c45e"/><use xlink:href="#a" transform="matrix(1,0,0,1,314.1608669073124,948.9680684514512) translate(100.00214595574847 37.60444786960758)"/><path d="M319.8 1052.27a8 8 0 0 1 8-8h312.8a8 8 0 0 1 8 8v71.86a8 8 0 0 1-8 8H327.8a8 8 0 0 1-8-8z" stroke="#000" stroke-width="2" fill-opacity="0"/><use xlink:href="#l" transform="matrix(1,0,0,1,331.78543353872305,1056.2685713279593) translate(22.51320832636159 24.30563191307172)"/><use xlink:href="#m" transform="matrix(1,0,0,1,331.78543353872305,1056.2685713279593) translate(77.36870720596579 24.30563191307172)"/><use xlink:href="#q" transform="matrix(1,0,0,1,331.78543353872305,1056.2685713279593) translate(203.0285657867541 24.30563191307172)"/><use xlink:href="#r" transform="matrix(1,0,0,1,331.78543353872305,1056.2685713279593) translate(17.935956790123466 55.202079782679306)"/><use xlink:href="#s" transform="matrix(1,0,0,1,331.78543353872305,1056.2685713279593) translate(65.63950014435554 55.202079782679306)"/><use xlink:href="#t" transform="matrix(1,0,0,1,331.78543353872305,1056.2685713279593) translate(131.86660830930143 55.202079782679306)"/><use xlink:href="#u" transform="matrix(1,0,0,1,331.78543353872305,1056.2685713279593) translate(206.67606310469387 55.202079782679306)"/><path d="M484.2 1133.13" stroke="#666" stroke-width="2" fill="none"/><path stroke="#666" stroke-width=".05" fill="#666"/><path d="M480.95 1133.13l-14.27 4.63v-9.27z" stroke="#666" stroke-width="2" fill="#666"/><path d="M823.15 1192.5a8 8 0 0 1 8-8h331.64a8 8 0 0 1 8 8v49a8 8 0 0 1-8 8H831.14a8 8 0 0 1-8-8z" stroke="#000" stroke-width="2" fill="#ff8839"/><use xlink:href="#v" transform="matrix(1,0,0,1,828.7078118766509,1190.0739812744969) translate(91.41979932530192 37.97944786960758)"/><path d="M832.57 1351.7a8 8 0 0 1 8-8h312.8a8 8 0 0 1 8 8v69.82a8 8 0 0 1-8 8h-312.8a8 8 0 0 1-8-8z" stroke="#000" stroke-width="2" fill-opacity="0"/><use xlink:href="#l" transform="matrix(1,0,0,1,844.5698793497997,1355.6993865575212) translate(65.81829903248985 24.30563191307172)"/><use xlink:href="#w" transform="matrix(1,0,0,1,844.5698793497997,1355.6993865575212) translate(120.67379791209405 24.30563191307172)"/><use xlink:href="#x" transform="matrix(1,0,0,1,844.5698793497997,1355.6993865575212) translate(36.99591826524015 55.202079782679306)"/><path d="M281.3 769.6a8 8 0 0 1 8-8h392.12a8 8 0 0 1 8 8v30.8a8 8 0 0 1-8 8H289.3a8 8 0 0 1-8-8z" stroke="#000" stroke-width="2" fill-opacity="0"/><use xlink:href="#l" transform="matrix(1,0,0,1,293.30117651314333,773.6049083292115) translate(24.214486487993863 24.30563191307172)"/><use xlink:href="#y" transform="matrix(1,0,0,1,293.30117651314333,773.6049083292115) translate(79.06998536759806 24.30563191307172)"/><use xlink:href="#m" transform="matrix(1,0,0,1,293.30117651314333,773.6049083292115) translate(154.73767482603517 24.30563191307172)"/><use xlink:href="#u" transform="matrix(1,0,0,1,293.30117651314333,773.6049083292115) translate(280.39753340682347 24.30563191307172)"/><path d="M484.2 709.35v13.13a12 12 0 0 1-12 12h-46.46a7.63 7.63 0 0 0-7.63 7.62" stroke="#666" stroke-width="2" fill="none"/><path d="M485.2 709.37h-2v-1.02h2z" stroke="#666" stroke-width=".05" fill="#666"/><path d="M418.1 757.37l-4.63-14.27h9.27z" stroke="#666" stroke-width="2" fill="#666"/><path d="M484.2 709.35v13.13a12 12 0 0 0 12 12H546a7.63 7.63 0 0 1 7.62 7.62" stroke="#666" stroke-width="2" fill="none"/><path d="M485.2 709.37h-2v-1.02h2z" stroke="#666" stroke-width=".05" fill="#666"/><path d="M553.62 757.37l-4.64-14.27h9.27z" stroke="#666" stroke-width="2" fill="#666"/><path d="M480.38 810.4v37.88a12 12 0 0 0 12 12h136.86" stroke="#666" stroke-width="2" fill="none"/><path d="M481.38 810.42h-2v-1.03h2z" stroke="#666" stroke-width=".05" fill="#666"/><path d="M644.5 860.28l-14.26 4.64v-9.27z" stroke="#666" stroke-width="2" fill="#666"/><path d="M887.82 1154.75l.43 1.07-.43 1.06-1.07.43-1.06-.42-.45-1.07.44-1.05 1.05-.43zm-12 0l.45 1.07-.44 1.06-1.06.43-1.06-.42-.43-1.07.44-1.05 1.07-.43zm-11.97 0l.44 1.07-.45 1.06-1.06.43-1.07-.42-.44-1.07.43-1.05 1.06-.43zm-11.98 0l.44 1.07-.43 1.06-1.06.43-1.05-.42-.44-1.07.45-1.05 1.06-.43zm-11.98 0l.43 1.07-.44 1.06-1.07.43-1.07-.42-.43-1.07.43-1.05 1.07-.43zm-12 0l.44 1.07-.44 1.06-1.06.43-1.06-.42-.44-1.07.44-1.05 1.06-.43zm-11.98 0l.44 1.07-.44 1.06-1.06.43-1.06-.42-.44-1.07.44-1.05 1.06-.43zm-11.98 0l.44 1.07-.44 1.06-1.06.43-1.06-.42-.44-1.07.44-1.05 1.06-.43zm-11.98 0l.44 1.07-.44 1.06-1.06.43-1.06-.42-.44-1.07.44-1.05 1.06-.43zm-12 0l.45 1.07-.42 1.06-1.07.43-1.05-.42-.44-1.07.45-1.05 1.06-.43zm-11.97 0l.43 1.07-.44 1.06-1.07.43-1.06-.42-.44-1.07.44-1.05 1.06-.43zm-12 0l.45 1.07-.44 1.06-1.05.43-1.06-.42-.45-1.07.44-1.05 1.05-.43zm-11.97 0l.44 1.07-.44 1.06-1.06.43-1.06-.42-.43-1.07.44-1.05 1.07-.43zm-11.98 0l.44 1.07-.45 1.06-1.06.43-1.08-.42-.43-1.07.42-1.05 1.07-.43zm-12 0l.45 1.07-.44 1.06-1.06.43-1.06-.42-.44-1.07.44-1.05 1.06-.43zm-11.97 0l.44 1.07-.44 1.06-1.06.43-1.06-.42-.44-1.07.44-1.05 1.06-.43zm-11.98 0l.44 1.07-.44 1.06-1.06.43-1.06-.42-.44-1.07.44-1.05 1.06-.43zm-11.98 0l.44 1.07-.44 1.06-1.06.43-1.06-.42-.44-1.07.44-1.05 1.06-.43zm-12 0l.46 1.07-.45 1.06-1.05.43-1.07-.42-.42-1.07.43-1.05 1.08-.43zm-11.97 0l.44 1.07-.45 1.06-1.06.43-1.07-.42-.44-1.07.43-1.05 1.06-.43zm-11.98 0l.44 1.07-.43 1.06-1.06.43-1.05-.42-.44-1.07.45-1.05 1.06-.43zm-11.98 0l.43 1.07-.44 1.06-1.07.43-1.06-.42-.44-1.07.44-1.05 1.06-.43zm-12 0l.45 1.07-.44 1.06-1.05.43-1.06-.42-.45-1.07.44-1.05 1.05-.43zm-11.98 0l.44 1.07-.43 1.06-1.07.43-1.06-.42-.44-1.07.44-1.05 1.06-.43zm-11.98 0l.44 1.07-.44 1.06-1.06.43-1.06-.42-.44-1.07.44-1.05 1.06-.43zm-11.98 0l.44 1.07-.44 1.06-1.06.43-1.06-.42-.44-1.07.44-1.05 1.06-.43zm-11.98 0l.44 1.07-.44 1.06-1.06.43-1.06-.42-.44-1.07.44-1.05 1.06-.43zm-11.98 0l.44 1.07-.44 1.06-1.06.43-1.07-.42-.43-1.07.43-1.05 1.07-.43zm-12 0l.45 1.07-.44 1.06-1.05.43-1.06-.42-.45-1.07.44-1.05 1.05-.43zm-11.97 0l.44 1.07-.44 1.06-1.06.43-1.06-.42-.43-1.07.44-1.05 1.07-.43zm-11.98 0l.44 1.07-.45 1.06-1.06.43-1.07-.42-.44-1.07.43-1.05 1.06-.43zm-11.98 0l.44 1.07-.43 1.06-1.06.43-1.05-.42-.44-1.07.45-1.05 1.06-.43zm-12 0l.45 1.07-.44 1.06-1.06.43-1.06-.42-.44-1.07.44-1.05 1.06-.43zm-11.97 0l.44 1.07-.44 1.06-1.06.43-1.06-.42-.44-1.07.44-1.05 1.06-.43zm-11.98 0l.44 1.07-.44 1.06-1.06.43-1.06-.42-.44-1.07.44-1.05 1.06-.43zm-11.98 0l.44 1.07-.44 1.06-1.06.43-1.06-.42-.44-1.07.44-1.05 1.06-.43zm-11.98 0l.44 1.07-.44 1.06-1.06.43-1.06-.42-.44-1.07.44-1.05 1.06-.43zm-12 0l.45 1.07-.43 1.06-1.06.43-1.05-.42-.44-1.07.45-1.05 1.06-.43zm-11.97 0l.43 1.07-.44 1.06-1.07.43-1.06-.42-.44-1.07.44-1.05 1.06-.43zm-12 0l.45 1.07-.44 1.06-1.05.43-1.06-.42-.45-1.07.44-1.05 1.05-.43zm-11.97 0l.44 1.07-.44 1.06-1.06.43-1.06-.42-.43-1.07.44-1.05 1.07-.43zm-11.98 0l.44 1.07-.45 1.06-1.06.43-1.08-.42-.44-1.07.44-1.05 1.06-.43zm-12 0l.45 1.07-.44 1.06-1.06.43-1.06-.42-.44-1.07.44-1.05 1.06-.43zm-11.97 0l.44 1.07-.44 1.06-1.06.43-1.06-.42-.44-1.07.44-1.05 1.06-.43zm-11.98 0l.44 1.07-.44 1.06-1.06.43-1.06-.42-.44-1.07.44-1.05 1.06-.43zm-11.98 0l.44 1.07-.44 1.06-1.06.43-1.06-.42-.44-1.07.44-1.05 1.06-.43zm-12 0l.45 1.07-.44 1.06-1.06.43-1.06-.42-.43-1.07.44-1.05 1.07-.43zm-11.97 0l.44 1.07-.45 1.06-1.06.43-1.07-.42-.44-1.07.43-1.05 1.06-.43zm-11.98 0l.44 1.07-.43 1.06-1.06.43-1.05-.42-.44-1.07.45-1.05 1.06-.43zm-11.98 0l.43 1.07-.44 1.06-1.07.43-1.06-.42-.44-1.07.44-1.05 1.06-.43zm-12 0l.44 1.07-.43 1.06-1.06.43-1.06-.42-.44-1.07.44-1.05 1.06-.43zm-11.98 0l.44 1.07-.44 1.06-1.06.43-1.06-.42-.44-1.07.44-1.05 1.06-.43zm-11.98 0l.44 1.07-.44 1.06-1.06.43-1.06-.42-.44-1.07.44-1.05 1.06-.43zm-11.98 0l.44 1.07-.44 1.06-1.06.43-1.06-.42-.44-1.07.44-1.05 1.06-.43zm-11.98 0l.44 1.07-.44 1.06-1.06.43-1.06-.42-.44-1.07.44-1.05 1.06-.43zm-12 0l.45 1.07-.44 1.06-1.07.43-1.06-.42-.44-1.07.44-1.05 1.06-.43zm-11.97 0l.45 1.07-.44 1.06-1.05.43-1.06-.42-.45-1.07.44-1.05 1.05-.43zm-11.97 0l.44 1.07-.44 1.06-1.06.43-1.06-.42-.43-1.07.44-1.05 1.07-.43zm-11.98 0l.44 1.07-.45 1.06-1.06.43-1.07-.42-.44-1.07.43-1.05 1.06-.43zm-11.98 0l.44 1.07-.43 1.06-1.06.43-1.06-.42-.43-1.07.44-1.05 1.07-.43zm-12 0l.45 1.07-.44 1.06-1.06.43-1.06-.42-.44-1.07.44-1.05 1.06-.43zm-11.97 0l.44 1.07-.44 1.06-1.06.43-1.06-.42-.44-1.07.44-1.05 1.06-.43zm-11.98 0l.44 1.07-.44 1.06-1.06.43-1.06-.42-.44-1.07.44-1.05 1.06-.43zm-11.98 0l.44 1.07-.44 1.06-1.06.43-1.06-.42-.44-1.07.44-1.05 1.06-.43zm-11.98 0l.44 1.07-.44 1.06-1.06.43-1.07-.42-.44-1.07.43-1.05 1.06-.43zm-12 0l.45 1.07-.43 1.06-1.06.43-1.05-.42-.44-1.07.45-1.05 1.06-.43zm-11.97 0l.43 1.07-.44 1.06-1.07.43-1.06-.42-.44-1.07.44-1.05 1.06-.43zm-12 0l.45 1.07-.44 1.06-1.05.43-1.06-.42-.45-1.07.44-1.05 1.05-.43zm-11.97 0l.44 1.07-.44 1.06-1.06.43-1.06-.42-.43-1.07.44-1.05 1.07-.43zm-11.98 0l.43 1.07-.43 1.06-1.07.43-1.06-.42-.44-1.07.44-1.05 1.06-.43zm1966.64-1.57l.43 1.06-.44 1.06-1.07.44-1.06-.44-.44-1.06.44-1.06 1.06-.44zm-12 0l.45 1.06-.44 1.06-1.05.44-1.06-.44-.45-1.06.44-1.06 1.05-.44zm-11.97 0l.44 1.06-.44 1.06-1.06.44-1.06-.44-.43-1.06.44-1.06 1.07-.44zm-11.98 0l.44 1.06-.45 1.06-1.06.44-1.08-.44-.43-1.06.42-1.06 1.07-.44zm-11.98 0l.43 1.06-.43 1.06-1.07.44-1.06-.44-.44-1.06.44-1.06 1.06-.44zm-12 0l.45 1.06-.44 1.06-1.06.44-1.06-.44-.44-1.06.44-1.06 1.06-.44zm-11.97 0l.44 1.06-.44 1.06-1.06.44-1.06-.44-.44-1.06.44-1.06 1.06-.44zm-11.98 0l.44 1.06-.44 1.06-1.06.44-1.06-.44-.44-1.06.44-1.06 1.06-.44zm-11.98 0l.44 1.06-.44 1.06-1.06.44-1.07-.44-.42-1.06.43-1.06 1.08-.44zm-12 0l.45 1.06-.45 1.06-1.06.44-1.07-.44-.44-1.06.43-1.06 1.06-.44zm-11.97 0l.44 1.06-.43 1.06-1.06.44-1.05-.44-.44-1.06.45-1.06 1.06-.44zm-11.98 0l.43 1.06-.44 1.06-1.07.44-1.06-.44-.44-1.06.44-1.06 1.06-.44zm-12 0l.45 1.06-.44 1.06-1.05.44-1.06-.44-.45-1.06.44-1.06 1.05-.44zm-11.98 0l.44 1.06-.43 1.06-1.07.44-1.06-.44-.44-1.06.44-1.06 1.06-.44zm-11.98 0l.44 1.06-.44 1.06-1.06.44-1.06-.44-.44-1.06.44-1.06 1.06-.44zm-11.98 0l.44 1.06-.44 1.06-1.06.44-1.06-.44-.44-1.06.44-1.06 1.06-.44zm-11.98 0l.44 1.06-.44 1.06-1.06.44-1.06-.44-.44-1.06.44-1.06 1.06-.44zm-11.98 0l.44 1.06-.44 1.06-1.06.44-1.07-.44-.43-1.06.43-1.06 1.07-.44zm-12 0l.45 1.06-.44 1.06-1.05.44-1.06-.44-.45-1.06.44-1.06 1.05-.44zm-11.97 0l.44 1.06-.44 1.06-1.06.44-1.06-.44-.43-1.06.44-1.06 1.07-.44zm-11.98 0l.44 1.06-.45 1.06-1.06.44-1.07-.44-.44-1.06.43-1.06 1.06-.44zm-11.98 0l.44 1.06-.43 1.06-1.06.44-1.05-.44-.44-1.06.45-1.06 1.06-.44zm-11.98 0l.43 1.06-.44 1.06-1.07.44-1.07-.44-.43-1.06.43-1.06 1.07-.44zm-12 0l.44 1.06-.44 1.06-1.06.44-1.06-.44-.44-1.06.44-1.06 1.06-.44zm-11.98 0l.44 1.06-.44 1.06-1.06.44-1.06-.44-.44-1.06.44-1.06 1.06-.44zm-11.98 0l.44 1.06-.44 1.06-1.06.44-1.06-.44-.44-1.06.44-1.06 1.06-.44zm-11.98 0l.44 1.06-.44 1.06-1.06.44-1.06-.44-.44-1.06.44-1.06 1.06-.44zm-12 0l.45 1.06-.42 1.06-1.07.44-1.05-.44-.44-1.06.45-1.06 1.06-.44zm-11.97 0l.43 1.06-.44 1.06-1.07.44-1.06-.44-.44-1.06.44-1.06 1.06-.44zm-12 0l.45 1.06-.44 1.06-1.05.44-1.06-.44-.45-1.06.44-1.06 1.05-.44zm-11.97 0l.44 1.06-.44 1.06-1.06.44-1.06-.44-.43-1.06.44-1.06 1.07-.44zm-11.98 0l.43 1.06-.43 1.06-1.07.44-1.06-.44-.43-1.06.42-1.06 1.07-.44zm-12 0l.45 1.06-.44 1.06-1.06.44-1.06-.44-.44-1.06.44-1.06 1.06-.44zm-11.97 0l.44 1.06-.44 1.06-1.06.44-1.06-.44-.44-1.06.44-1.06 1.06-.44zm-11.98 0l.44 1.06-.44 1.06-1.06.44-1.06-.44-.44-1.06.44-1.06 1.06-.44zm-11.98 0l.44 1.06-.44 1.06-1.06.44-1.06-.44-.44-1.06.44-1.06 1.06-.44zm-11.98 0l.43 1.06-.43 1.06-1.07.44-1.06-.44-.43-1.06.44-1.06 1.07-.44zm-12 0l.45 1.06-.45 1.06-1.06.44-1.07-.44-.44-1.06.43-1.06 1.06-.44zm-11.97 0l.44 1.06-.43 1.06-1.06.44-1.05-.44-.44-1.06.45-1.06 1.06-.44zm-11.98 0l.43 1.06-.44 1.06-1.07.44-1.06-.44-.44-1.06.44-1.06 1.06-.44zm-12 0l.45 1.06-.44 1.06-1.05.44-1.06-.44-.45-1.06.44-1.06 1.05-.44zm-11.98 0l.44 1.06-.44 1.06-1.06.44-1.06-.44-.44-1.06.44-1.06 1.06-.44zm-11.98 0l.44 1.06-.44 1.06-1.06.44-1.06-.44-.44-1.06.44-1.06 1.06-.44zm-11.98 0l.44 1.06-.44 1.06-1.06.44-1.06-.44-.44-1.06.44-1.06 1.06-.44zm-11.98 0l.44 1.06-.44 1.06-1.06.44-1.06-.44-.44-1.06.44-1.06 1.06-.44zm-12 0l.45 1.06-.44 1.06-1.07.44-1.06-.44-.43-1.06.43-1.06 1.07-.44zm-11.97 0l.45 1.06-.44 1.06-1.05.44-1.06-.44-.45-1.06.44-1.06 1.05-.44zm-11.97 0l.44 1.06-.44 1.06-1.06.44-1.06-.44-.43-1.06.44-1.06 1.07-.44zm-11.98 0l.44 1.06-.45 1.06-1.06.44-1.07-.44-.44-1.06.43-1.06 1.06-.44zm-11.98 0l.44 1.06-.43 1.06-1.06.44-1.06-.44-.43-1.06.44-1.06 1.07-.44zm-11.98 0l.42 1.06-.43 1.06-1.08.44-1.06-.44-.44-1.06.44-1.06 1.06-.44zm-12 0l.44 1.06-.44 1.06-1.06.44-1.06-.44-.44-1.06.44-1.06 1.06-.44zm-11.98 0l.44 1.06-.44 1.06-1.06.44-1.06-.44-.44-1.06.44-1.06 1.06-.44zm-11.98 0l.44 1.06-.44 1.06-1.06.44-1.06-.44-.44-1.06.44-1.06 1.06-.44zm-11.98 0l.43 1.06-.44 1.06-1.07.44-1.06-.44-.44-1.06.44-1.06 1.06-.44zm-12 0l.45 1.06-.43 1.06-1.06.44-1.05-.44-.44-1.06.45-1.06 1.06-.44zm-11.97 0l.43 1.06-.44 1.06-1.07.44-1.06-.44-.44-1.06.44-1.06 1.06-.44zm-12 0l.45 1.06-.44 1.06-1.05.44-1.06-.44-.45-1.06.44-1.06 1.05-.44zm-11.97 0l.44 1.06-.44 1.06-1.06.44-1.06-.44-.43-1.06.44-1.06 1.07-.44zm-12 0l.45 1.06-.44 1.06-1.06.44-1.06-.44-.44-1.06.44-1.06 1.06-.44zm-11.97 0l.44 1.06-.44 1.06-1.06.44-1.06-.44-.44-1.06.44-1.06 1.06-.44zm-11.98 0l.44 1.06-.44 1.06-1.06.44-1.06-.44-.44-1.06.44-1.06 1.06-.44zm-11.98 0l.44 1.06-.44 1.06-1.06.44-1.06-.44-.44-1.06.44-1.06 1.06-.44zm-11.98 0l.44 1.06-.44 1.06-1.06.44-1.07-.44-.44-1.06.43-1.06 1.06-.44zm-12 0l.45 1.06-.44 1.06-1.06.44-1.06-.44-.43-1.06.44-1.06 1.07-.44zm-11.97 0l.44 1.06-.45 1.06-1.06.44-1.07-.44-.44-1.06.43-1.06 1.06-.44zm-11.98 0l.44 1.06-.43 1.06-1.06.44-1.05-.44-.44-1.06.45-1.06 1.06-.44zm-11.98 0l.43 1.06-.44 1.06-1.07.44-1.06-.44-.44-1.06.44-1.06 1.06-.44zm-12 0l.44 1.06-.43 1.06-1.06.44-1.06-.44-.43-1.06.43-1.06 1.07-.44zm-11.98 0l.44 1.06-.44 1.06-1.06.44-1.06-.44-.44-1.06.44-1.06 1.06-.44z" fill="#666"/><path d="M60.02 1157.32h-1.54v-3h1.54zM2028.13 1155.74h-1.54v-3h1.53z" stroke="#666" stroke-width=".05" fill="#666"/><use xlink:href="#b" transform="matrix(1,0,0,1,895.2091867608342,1136.181968238182) translate(12.977 26.365395104378898)"/><path d="M482.42 1004.2v20.57" stroke="#666" stroke-width="2" fill="none"/><path d="M483.42 1004.22h-2v-1.02h2z" stroke="#666" stroke-width=".05" fill="#666"/><path d="M482.42 1040.03l-4.63-14.26h9.26z" stroke="#666" stroke-width="2" fill="#666"/><path d="M1579.7 1205.05l-.17 2-.47 1.98-.78 1.88-1.07 1.75-1.32 1.55-1.55 1.33-1.74 1.07-1.9.78-1.98.47-2 .16H1190.3v-2h376.35l1.76-.13 1.7-.4 1.58-.66 1.47-.9 1.32-1.1 1.12-1.33.9-1.47.65-1.6.4-1.67.14-1.76v-71.45h2z" stroke="#666" stroke-width=".05" fill="#666"/><path d="M1579.7 1133.55h-2v-1.03h2z" fill="#666"/><path d="M1579.72 1133.57h-2.05v-1.07h2.05zm-2-1.02v.97h1.95v-.97z" stroke="#666" stroke-width=".05" fill="#666"/><path d="M1189.3 1221.65l-14.27-4.64 14.27-4.63z" fill="#666"/><path d="M1190.3 1223.02l-18.5-6 18.5-6.02zm-12.03-6l10.03 3.25v-6.52z" stroke="#666" stroke-width=".05" fill="#666"/><path d="M832.57 1265.5a8 8 0 0 1 8-8h312.8a8 8 0 0 1 8 8v59.66a8 8 0 0 1-8 8h-312.8a8 8 0 0 1-8-8z" stroke="#000" stroke-width="2" fill-opacity="0"/><use xlink:href="#z" transform="matrix(1,0,0,1,844.5698793497997,1269.5078516397243) translate(31.81075050934538 24.30563191307172)"/><use xlink:href="#A" transform="matrix(1,0,0,1,844.5698793497997,1269.5078516397243) translate(151.74904466983594 24.30563191307172)"/><use xlink:href="#B" transform="matrix(1,0,0,1,844.5698793497997,1269.5078516397243) translate(88.99063493469554 55.202079782679306)"/><path d="M1329.05 1541.17c0 4.72-150.6 8.54-336.4 8.54-185.8 0-336.4-3.8-336.4-8.53v-68.34c0-4.72 150.6-8.54 336.4-8.54 185.8 0 336.4 3.8 336.4 8.53z" stroke="#000" stroke-opacity="0" stroke-width="2" fill="#019280"/><path d="M1329.05 1472.83c0 4.72-150.6 8.54-336.4 8.54-185.8 0-336.4-3.82-336.4-8.54" stroke="#000" stroke-opacity="0" stroke-width="2" fill="none"/><use xlink:href="#p" transform="matrix(1,0,0,1,661.2463710185336,1486.372957035533) translate(275.60031561369146 40.35171106091475)"/><path d="M996.97 1431.52v5.97a12 12 0 0 1-12 12H715.25a.47.47 0 0 0-.46.46" stroke="#666" stroke-width="2" fill="none"/><path d="M997.97 1431.55h-2v-1.03h2z" stroke="#666" stroke-width=".05" fill="#666"/><path d="M714.8 1465.22l-4.65-14.26h9.27z" stroke="#666" stroke-width="2" fill="#666"/><path d="M996.97 1431.52v5.6a12 12 0 0 0 12 12h222.83a.1.1 0 0 1 .1.1" stroke="#666" stroke-width="2" fill="none"/><path d="M997.97 1431.55h-2v-1.03h2z" stroke="#666" stroke-width=".05" fill="#666"/><path d="M1231.9 1464.48l-4.64-14.27h9.27z" stroke="#666" stroke-width="2" fill="#666"/><path d="M832.93 901.78v7.82a12 12 0 0 1-12 12h-336.2a2.3 2.3 0 0 0-2.3 2.3" stroke="#666" stroke-width="2" fill="none"/><path d="M833.93 900.8v1h-2v-1.03z" stroke="#666" stroke-width=".05" fill="#666"/><path d="M482.42 939.17l-4.63-14.26h9.26z" stroke="#666" stroke-width="2" fill="#666"/><path d="M513.9 109.9h-17.7a12 12 0 0 0-12 12v32.64" stroke="#666" stroke-width="2" fill="none"/><path d="M514.9 110.9h-1.04v-2h1.03z" stroke="#666" stroke-width=".05" fill="#666"/><path d="M484.2 169.8l-4.65-14.26h9.27z" stroke="#666" stroke-width="2" fill="#666"/><path d="M484.2 1134.13V1205a12 12 0 0 0 12 12h307.44" stroke="#666" stroke-width="2" fill="none"/><path d="M485.2 1134.15h-2v-1.02h2z" stroke="#666" stroke-width=".05" fill="#666"/><path d="M818.9 1217l-14.25 4.65v-9.28z" stroke="#666" stroke-width="2" fill="#666"/><path d="M1404.87 181.44a8 8 0 0 1 8-8h331.64a8 8 0 0 1 8 8v42.78a8 8 0 0 1-8 8h-331.63a8 8 0 0 1-8-8z" stroke="#000" stroke-width="2" fill="#54c45e"/><use xlink:href="#a" transform="matrix(1,0,0,1,1410.4283305588986,178.99626453314053) translate(100.00214595574847 37.60444786960758)"/><path d="M1381.7 605.6a8 8 0 0 1 8-8h418.15a8 8 0 0 1 8 8v93.75a8 8 0 0 1-8 8H1389.7a8 8 0 0 1-8-8z" stroke="#000" stroke-width="2" fill="#ff8839"/><use xlink:href="#e" transform="matrix(1,0,0,1,1387.2559946566928,603.1712789008681) translate(19.755435477997278 37.69819786960758)"/><use xlink:href="#f" transform="matrix(1,0,0,1,1387.2559946566928,603.1712789008681) translate(184.64377011545164 37.69819786960758)"/><use xlink:href="#C" transform="matrix(1,0,0,1,1387.2559946566928,603.1712789008681) translate(208.1379440162991 37.69819786960758)"/><use xlink:href="#h" transform="matrix(1,0,0,1,1387.2559946566928,603.1712789008681) translate(111.3183460915739 84.04286967401896)"/><path d="M1423.7 278.64a8 8 0 0 1 8-8h290.44a8 8 0 0 1 8 8v30.8a8 8 0 0 1-8 8H1431.7a8 8 0 0 1-8-8z" stroke="#000" stroke-width="2" fill-opacity="0"/><use xlink:href="#l" transform="matrix(1,0,0,1,1435.7134655051964,282.6436274933818) translate(16.94869452564441 24.30563191307172)"/><use xlink:href="#m" transform="matrix(1,0,0,1,1435.7134655051964,282.6436274933818) translate(71.80419340524861 24.30563191307172)"/><use xlink:href="#n" transform="matrix(1,0,0,1,1435.7134655051964,282.6436274933818) translate(197.4640519860369 24.30563191307172)"/><path d="M1404.87 365.75a8 8 0 0 1 8-8h331.64a8 8 0 0 1 8 8v42.8a8 8 0 0 1-8 8h-331.63a8 8 0 0 1-8-8z" stroke="#000" stroke-width="2" fill="#6db1ff"/><use xlink:href="#o" transform="matrix(1,0,0,1,1410.4283305588986,363.3120204353599) translate(78.59991904607239 37.60444786960758)"/><path d="M1423.7 462.96a8 8 0 0 1 8-8h290.44a8 8 0 0 1 8 8v30.8a8 8 0 0 1-8 8H1431.7a8 8 0 0 1-8-8z" stroke="#000" stroke-width="2" fill-opacity="0"/><use xlink:href="#l" transform="matrix(1,0,0,1,1435.7134655051964,466.9593833956012) translate(16.94869452564441 24.30563191307172)"/><use xlink:href="#m" transform="matrix(1,0,0,1,1435.7134655051964,466.9593833956012) translate(71.80419340524861 24.30563191307172)"/><use xlink:href="#n" transform="matrix(1,0,0,1,1435.7134655051964,466.9593833956012) translate(197.4640519860369 24.30563191307172)"/><path d="M1403.1 950.8a8 8 0 0 1 8-8h331.65a8 8 0 0 1 8 8v42.8a8 8 0 0 1-8 8H1411.1a8 8 0 0 1-8-8z" stroke="#000" stroke-width="2" fill="#54c45e"/><use xlink:href="#a" transform="matrix(1,0,0,1,1408.6658314006368,948.3644138746014) translate(100.00214595574847 37.60444786960758)"/><path d="M1414.3 1051.66a8 8 0 0 1 8-8h312.8a8 8 0 0 1 8 8v71.86a8 8 0 0 1-8 8h-312.8a8 8 0 0 1-8-8z" stroke="#000" stroke-width="2" fill-opacity="0"/><use xlink:href="#l" transform="matrix(1,0,0,1,1426.2903980320475,1055.664916751109) translate(22.51320832636159 24.30563191307172)"/><use xlink:href="#m" transform="matrix(1,0,0,1,1426.2903980320475,1055.664916751109) translate(77.36870720596579 24.30563191307172)"/><use xlink:href="#q" transform="matrix(1,0,0,1,1426.2903980320475,1055.664916751109) translate(203.0285657867541 24.30563191307172)"/><use xlink:href="#r" transform="matrix(1,0,0,1,1426.2903980320475,1055.664916751109) translate(17.935956790123466 55.202079782679306)"/><use xlink:href="#s" transform="matrix(1,0,0,1,1426.2903980320475,1055.664916751109) translate(65.63950014435554 55.202079782679306)"/><use xlink:href="#t" transform="matrix(1,0,0,1,1426.2903980320475,1055.664916751109) translate(131.86660830930143 55.202079782679306)"/><use xlink:href="#u" transform="matrix(1,0,0,1,1426.2903980320475,1055.664916751109) translate(206.67606310469387 55.202079782679306)"/><path d="M1375.8 769a8 8 0 0 1 8-8h447.02a8 8 0 0 1 8 8v30.8a8 8 0 0 1-8 8h-447a8 8 0 0 1-8-8z" stroke="#000" stroke-width="2" fill-opacity="0"/><use xlink:href="#l" transform="matrix(1,0,0,1,1387.806141006468,773.0012537523615) translate(23.89337949429631 24.30563191307172)"/><use xlink:href="#D" transform="matrix(1,0,0,1,1387.806141006468,773.0012537523615) translate(78.74887837390051 24.30563191307172)"/><use xlink:href="#m" transform="matrix(1,0,0,1,1387.806141006468,773.0012537523615) translate(210.05878181973273 24.30563191307172)"/><use xlink:href="#u" transform="matrix(1,0,0,1,1387.806141006468,773.0012537523615) translate(335.71864040052105 24.30563191307172)"/><path d="M1410.03 129.76h156.66a12 12 0 0 1 12 12v12.17" stroke="#666" stroke-width="2" fill="none"/><path d="M1410.06 130.76h-1.03v-2h1.03z" stroke="#666" stroke-width=".05" fill="#666"/><path d="M1578.7 169.2l-4.64-14.27h9.27z" stroke="#666" stroke-width="2" fill="#666"/><path d="M1578.7 234.22v5.2a12 12 0 0 1-12 12h-63.3" stroke="#666" stroke-width="2" fill="none"/><path d="M1579.7 234.25h-2v-1.03h2z" stroke="#666" stroke-width=".05" fill="#666"/><path d="M1503.16 266.4l-4.4-14.33 9.27.15z" stroke="#666" stroke-width="2" fill="#666"/><path d="M1578.7 234.22v5.2a12 12 0 0 0 12 12h63.5" stroke="#666" stroke-width="2" fill="none"/><path d="M1579.7 234.25h-2v-1.03h2z" stroke="#666" stroke-width=".05" fill="#666"/><path d="M1654.45 266.4l-4.86-14.18 9.26-.15z" stroke="#666" stroke-width="2" fill="#666"/><path d="M1578.7 418.54v5.2a12 12 0 0 1-12 12h-63.3" stroke="#666" stroke-width="2" fill="none"/><path d="M1579.7 418.56h-2v-1.02h2z" stroke="#666" stroke-width=".05" fill="#666"/><path d="M1503.16 450.72l-4.4-14.33 9.27.13z" stroke="#666" stroke-width="2" fill="#666"/><path d="M1578.7 418.54v5.2a12 12 0 0 0 12 12h71.24" stroke="#666" stroke-width="2" fill="none"/><path d="M1579.7 418.56h-2v-1.02h2z" stroke="#666" stroke-width=".05" fill="#666"/><path d="M1662.18 450.72l-4.87-14.2 9.28-.13z" stroke="#666" stroke-width="2" fill="#666"/><path d="M1598.77 709.35v12.82a12 12 0 0 0 12 12H1732a7.33 7.33 0 0 1 7.3 7.33" stroke="#666" stroke-width="2" fill="none"/><path d="M1599.77 709.37h-2v-1.02h2z" stroke="#666" stroke-width=".05" fill="#666"/><path d="M1739.3 756.76l-4.62-14.26h9.27z" stroke="#666" stroke-width="2" fill="#666"/><path d="M1598.77 709.35v12.82a12 12 0 0 1-12 12h-80.24a7.33 7.33 0 0 0-7.33 7.33" stroke="#666" stroke-width="2" fill="none"/><path d="M1599.77 709.37h-2v-1.02h2z" stroke="#666" stroke-width=".05" fill="#666"/><path d="M1499.2 756.76l-4.63-14.26h9.27z" stroke="#666" stroke-width="2" fill="#666"/><path d="M1484.57 319.43v6.16a12 12 0 0 0 12 12h81.46a.66.66 0 0 1 .66.65" stroke="#666" stroke-width="2" fill="none"/><path d="M1485.57 319.45h-2v-1.02h2z" stroke="#666" stroke-width=".05" fill="#666"/><path d="M1578.7 353.5l-4.64-14.25h9.27z" stroke="#666" stroke-width="2" fill="#666"/><path d="M1665.32 319.43v6.16a12 12 0 0 1-12 12h-73.97a.66.66 0 0 0-.66.65" stroke="#666" stroke-width="2" fill="none"/><path d="M1666.32 319.45h-2v-1.02h2z" stroke="#666" stroke-width=".05" fill="#666"/><path d="M1578.7 353.5l-4.64-14.25h9.27z" stroke="#666" stroke-width="2" fill="#666"/><path d="M1576.93 503.75v15.07a12 12 0 0 1-12 12h-312.8" stroke="#666" stroke-width="2" fill="none"/><path d="M1577.93 503.77h-2v-1.02h2z" stroke="#666" stroke-width=".05" fill="#666"/><path d="M1236.87 530.82l14.27-4.64v9.28z" stroke="#666" stroke-width="2" fill="#666"/><path d="M1206.5 561.3v79.18a12 12 0 0 0 12 12h143.7" stroke="#666" stroke-width="2" fill="none"/><path d="M1207.5 561.32h-2v-1.03h2z" stroke="#666" stroke-width=".05" fill="#666"/><path d="M1377.46 652.48l-14.27 4.63v-9.26z" stroke="#666" stroke-width="2" fill="#666"/><path d="M1607.3 809.8v38.48a12 12 0 0 1-12 12h-247.75" stroke="#666" stroke-width="2" fill="none"/><path d="M1608.3 809.8h-2v-1h2z" stroke="#666" stroke-width=".05" fill="#666"/><path d="M1332.3 860.28l14.25-4.63v9.27z" stroke="#666" stroke-width="2" fill="#666"/><path d="M1194.03 902.17v7.32a12 12 0 0 0 12 12h369.08a1.8 1.8 0 0 1 1.83 1.8" stroke="#666" stroke-width="2" fill="none"/><path d="M1195.03 902.2h-2v-1.02l2-.02z" stroke="#666" stroke-width=".05" fill="#666"/><path d="M1576.93 938.57l-4.64-14.27h9.26z" stroke="#666" stroke-width="2" fill="#666"/><path d="M1576.93 1003.6v20.56" stroke="#666" stroke-width="2" fill="none"/><path d="M1577.93 1003.62h-2v-1.03h2z" stroke="#666" stroke-width=".05" fill="#666"/><path d="M1576.93 1039.43l-4.64-14.27h9.26z" stroke="#666" stroke-width="2" fill="#666"/><defs><path fill="#333" d="M230 0l2-204L168 0h-37L68-204 70 0H24v-248h70l56 185 57-185h69V0h-46" id="E"/><path fill="#333" d="M133-34C117-15 103 5 69 4 32 3 11-16 11-54c-1-60 55-63 116-61 1-26-3-47-28-47-18 1-26 9-28 27l-52-2c7-38 36-58 82-57s74 22 75 68l1 82c-1 14 12 18 25 15v27c-30 8-71 5-69-32zm-48 3c29 0 43-24 42-57-32 0-66-3-65 30 0 17 8 27 23 27" id="F"/><path fill="#333" d="M135-194c53 0 70 44 70 98 0 56-19 98-73 100-31 1-45-17-59-34 3 33 2 69 2 105H25l-1-265h48c2 10 0 23 3 31 11-24 29-35 60-35zM114-30c33 0 39-31 40-66 0-38-9-64-40-64-56 0-55 130 0 130" id="G"/><path fill="#333" d="M185-48c-13 30-37 53-82 52C43 2 14-33 14-96s30-98 90-98c62 0 83 45 84 108H66c0 31 8 55 39 56 18 0 30-7 34-22zm-45-69c5-46-57-63-70-21-2 6-4 13-4 21h74" id="H"/><path fill="#333" d="M135-150c-39-12-60 13-60 57V0H25l-1-190h47c2 13-1 29 3 40 6-28 27-53 61-41v41" id="I"/><g id="a"><use transform="matrix(0.10727933288058189,0,0,0.10727933288058189,0,0)" xlink:href="#E"/><use transform="matrix(0.10727933288058189,0,0,0.10727933288058189,32.07652053129399,0)" xlink:href="#F"/><use transform="matrix(0.10727933288058189,0,0,0.10727933288058189,53.532387107410365,0)" xlink:href="#G"/><use transform="matrix(0.10727933288058189,0,0,0.10727933288058189,77.0265610082578,0)" xlink:href="#G"/><use transform="matrix(0.10727933288058189,0,0,0.10727933288058189,100.52073490910524,0)" xlink:href="#H"/><use transform="matrix(0.10727933288058189,0,0,0.10727933288058189,121.97660148522164,0)" xlink:href="#I"/></g><path d="M185-189c-5-48-123-54-124 2 14 75 158 14 163 119 3 78-121 87-175 55-17-10-28-26-33-46l33-7c5 56 141 63 141-1 0-78-155-14-162-118-5-82 145-84 179-34 5 7 8 16 11 25" id="J"/><path d="M140-251c81 0 123 46 123 126C263-46 219 4 140 4 59 4 17-45 17-125s42-126 123-126zm0 227c63 0 89-41 89-101s-29-99-89-99c-61 0-89 39-89 99S79-25 140-24" id="K"/><path d="M233-177c-1 41-23 64-60 70L243 0h-38l-65-103H63V0H30v-248c88 3 205-21 203 71zM63-129c60-2 137 13 137-47 0-61-80-42-137-45v92" id="L"/><path d="M127-220V0H93v-220H8v-28h204v28h-85" id="M"/><path d="M33 0v-248h34V0H33" id="N"/><path d="M190 0L58-211 59 0H30v-248h39L202-35l-2-213h31V0h-41" id="O"/><path d="M143 4C61 4 22-44 18-125c-5-107 100-154 193-111 17 8 29 25 37 43l-32 9c-13-25-37-40-76-40-61 0-88 39-88 99 0 61 29 100 91 101 35 0 62-11 79-27v-45h-74v-28h105v86C228-13 192 4 143 4" id="P"/><path d="M0 4l72-265h28L28 4H0" id="Q"/><path d="M197 0v-115H63V0H30v-248h33v105h134v-105h34V0h-34" id="R"/><path d="M232-93c-1 65-40 97-104 97C67 4 28-28 28-90v-158h33c8 89-33 224 67 224 102 0 64-133 71-224h33v155" id="S"/><path d="M63-220v92h138v28H63V0H30v-248h175v28H63" id="T"/><path d="M30 0v-248h33v221h125V0H30" id="U"/><g id="b"><use transform="matrix(0.07867151077909339,0,0,0.07867151077909339,0,0)" xlink:href="#J"/><use transform="matrix(0.07867151077909339,0,0,0.07867151077909339,18.881162586982413,0)" xlink:href="#K"/><use transform="matrix(0.07867151077909339,0,0,0.07867151077909339,40.90918560512855,0)" xlink:href="#L"/><use transform="matrix(0.07867151077909339,0,0,0.07867151077909339,60.734406321460085,0)" xlink:href="#M"/><use transform="matrix(0.07867151077909339,0,0,0.07867151077909339,77.96346718208153,0)" xlink:href="#N"/><use transform="matrix(0.07867151077909339,0,0,0.07867151077909339,85.83061825999087,0)" xlink:href="#O"/><use transform="matrix(0.07867151077909339,0,0,0.07867151077909339,106.20653955177606,0)" xlink:href="#P"/><use transform="matrix(0.07867151077909339,0,0,0.07867151077909339,128.23456256992222,0)" xlink:href="#Q"/><use transform="matrix(0.07867151077909339,0,0,0.07867151077909339,136.10171364783156,0)" xlink:href="#J"/><use transform="matrix(0.07867151077909339,0,0,0.07867151077909339,154.98287623481397,0)" xlink:href="#R"/><use transform="matrix(0.07867151077909339,0,0,0.07867151077909339,175.35879752659915,0)" xlink:href="#S"/><use transform="matrix(0.07867151077909339,0,0,0.07867151077909339,195.73471881838432,0)" xlink:href="#T"/><use transform="matrix(0.07867151077909339,0,0,0.07867151077909339,212.96377967900577,0)" xlink:href="#T"/><use transform="matrix(0.07867151077909339,0,0,0.07867151077909339,230.1928405396272,0)" xlink:href="#U"/><use transform="matrix(0.07867151077909339,0,0,0.07867151077909339,245.9271426954459,0)" xlink:href="#N"/><use transform="matrix(0.07867151077909339,0,0,0.07867151077909339,253.79429377335524,0)" xlink:href="#O"/><use transform="matrix(0.07867151077909339,0,0,0.07867151077909339,274.17021506514044,0)" xlink:href="#P"/></g><path d="M147 0H94L2-248h55l64 206c17-72 42-137 63-206h54" id="V"/><path d="M110-194c64 0 96 36 96 99 0 64-35 99-97 99-61 0-95-36-95-99 0-62 34-99 96-99zm-1 164c35 0 45-28 45-65 0-40-10-65-43-65-34 0-45 26-45 65 0 36 10 65 43 65" id="W"/><path d="M231 0h-52l-39-155L100 0H48L-1-190h46L77-45c9-52 24-97 36-145h53l37 145 32-145h46" id="X"/><path d="M185-48c-13 30-37 53-82 52C43 2 14-33 14-96s30-98 90-98c62 0 83 45 84 108H66c0 31 8 55 39 56 18 0 30-7 34-22zm-45-69c5-46-57-63-70-21-2 6-4 13-4 21h74" id="Y"/><path d="M25 0v-261h50V0H25" id="Z"/><g id="c"><use transform="matrix(0.07867151077909339,0,0,0.07867151077909339,0,0)" xlink:href="#V"/><use transform="matrix(0.07867151077909339,0,0,0.07867151077909339,16.75703179594689,0)" xlink:href="#W"/><use transform="matrix(0.07867151077909339,0,0,0.07867151077909339,33.986092656568346,0)" xlink:href="#X"/><use transform="matrix(0.07867151077909339,0,0,0.07867151077909339,56.01411567471449,0)" xlink:href="#Y"/><use transform="matrix(0.07867151077909339,0,0,0.07867151077909339,71.74841783053317,0)" xlink:href="#Z"/></g><path d="M24-248c93 1 206-16 204 79-1 75-69 88-152 82V0H24v-248zm52 121c47 0 100 7 100-41 0-47-54-39-100-39v80" id="aa"/><path d="M133-34C117-15 103 5 69 4 32 3 11-16 11-54c-1-60 55-63 116-61 1-26-3-47-28-47-18 1-26 9-28 27l-52-2c7-38 36-58 82-57s74 22 75 68l1 82c-1 14 12 18 25 15v27c-30 8-71 5-69-32zm-48 3c29 0 43-24 42-57-32 0-66-3-65 30 0 17 8 27 23 27" id="ab"/><path d="M135-150c-39-12-60 13-60 57V0H25l-1-190h47c2 13-1 29 3 40 6-28 27-53 61-41v41" id="ac"/><path d="M115-3C79 11 28 4 28-45v-112H4v-33h27l15-45h31v45h36v33H77v99c-1 23 16 31 38 25v30" id="ad"/><path d="M25-224v-37h50v37H25zM25 0v-190h50V0H25" id="ae"/><path d="M135-194c87-1 58 113 63 194h-50c-7-57 23-157-34-157-59 0-34 97-39 157H25l-1-190h47c2 12-1 28 3 38 12-26 28-41 61-42" id="af"/><g id="d"><use transform="matrix(0.07867151077909339,0,0,0.07867151077909339,0,0)" xlink:href="#aa"/><use transform="matrix(0.07867151077909339,0,0,0.07867151077909339,18.881162586982413,0)" xlink:href="#ab"/><use transform="matrix(0.07867151077909339,0,0,0.07867151077909339,34.61546474280109,0)" xlink:href="#ac"/><use transform="matrix(0.07867151077909339,0,0,0.07867151077909339,45.62947625187415,0)" xlink:href="#ad"/><use transform="matrix(0.07867151077909339,0,0,0.07867151077909339,54.99138603458627,0)" xlink:href="#ae"/><use transform="matrix(0.07867151077909339,0,0,0.07867151077909339,62.858537112495604,0)" xlink:href="#ad"/><use transform="matrix(0.07867151077909339,0,0,0.07867151077909339,72.22044689520773,0)" xlink:href="#ae"/><use transform="matrix(0.07867151077909339,0,0,0.07867151077909339,80.08759797311707,0)" xlink:href="#W"/><use transform="matrix(0.07867151077909339,0,0,0.07867151077909339,97.31665883373854,0)" xlink:href="#af"/><use transform="matrix(0.07867151077909339,0,0,0.07867151077909339,114.54571969435997,0)" xlink:href="#Y"/><use transform="matrix(0.07867151077909339,0,0,0.07867151077909339,130.28002185017866,0)" xlink:href="#ac"/></g><path d="M240-174c0 40-23 61-54 70L253 0h-59l-57-94H76V0H24v-248c93 4 217-23 216 74zM76-134c48-2 112 12 112-38 0-48-66-32-112-35v73" id="ag"/><path d="M88-194c31-1 46 15 58 34l-1-101h50l1 261h-48c-2-10 0-23-3-31C134-8 116 4 84 4 32 4 16-41 15-95c0-56 19-97 73-99zm17 164c33 0 40-30 41-66 1-37-9-64-41-64s-38 30-39 65c0 43 13 65 39 65" id="ah"/><path d="M85 4C-2 5 27-109 22-190h50c7 57-23 150 33 157 60-5 35-97 40-157h50l1 190h-47c-2-12 1-28-3-38-12 25-28 42-61 42" id="ai"/><path d="M190-63c-7 42-38 67-86 67-59 0-84-38-90-98-12-110 154-137 174-36l-49 2c-2-19-15-32-35-32-30 0-35 28-38 64-6 74 65 87 74 30" id="aj"/><g id="e"><use transform="matrix(0.10727933288058189,0,0,0.10727933288058189,0,0)" xlink:href="#ag"/><use transform="matrix(0.10727933288058189,0,0,0.10727933288058189,27.78534721607071,0)" xlink:href="#Y"/><use transform="matrix(0.10727933288058189,0,0,0.10727933288058189,49.24121379218709,0)" xlink:href="#ah"/><use transform="matrix(0.10727933288058189,0,0,0.10727933288058189,72.73538769303453,0)" xlink:href="#ai"/><use transform="matrix(0.10727933288058189,0,0,0.10727933288058189,96.22956159388195,0)" xlink:href="#aj"/><use transform="matrix(0.10727933288058189,0,0,0.10727933288058189,117.68542816999833,0)" xlink:href="#Y"/><use transform="matrix(0.10727933288058189,0,0,0.10727933288058189,139.1412947461147,0)" xlink:href="#ac"/></g><path d="M14-72v-43h91v43H14" id="ak"/><use transform="matrix(0.10727933288058189,0,0,0.10727933288058189,0,0)" xlink:href="#ak" id="f"/><g id="g"><use transform="matrix(0.10727933288058189,0,0,0.10727933288058189,0,0)" xlink:href="#V"/><use transform="matrix(0.10727933288058189,0,0,0.10727933288058189,22.85049790356394,0)" xlink:href="#W"/><use transform="matrix(0.10727933288058189,0,0,0.10727933288058189,46.34467180441138,0)" xlink:href="#X"/><use transform="matrix(0.10727933288058189,0,0,0.10727933288058189,76.3828850109743,0)" xlink:href="#Y"/><use transform="matrix(0.10727933288058189,0,0,0.10727933288058189,97.83875158709068,0)" xlink:href="#Z"/></g><path d="M67-125c0 53 21 87 73 88 37 1 54-22 65-47l45 17C233-25 199 4 140 4 58 4 20-42 15-125 8-235 124-281 211-232c18 10 29 29 36 50l-46 12c-8-25-30-41-62-41-52 0-71 34-72 86" id="al"/><path d="M114-157C55-157 80-60 75 0H25v-261h50l-1 109c12-26 28-41 61-42 86-1 58 113 63 194h-50c-7-57 23-157-34-157" id="am"/><path d="M137-138c1-29-70-34-71-4 15 46 118 7 119 86 1 83-164 76-172 9l43-7c4 19 20 25 44 25 33 8 57-30 24-41C81-84 22-81 20-136c-2-80 154-74 161-7" id="an"/><g id="h"><use transform="matrix(0.10727933288058189,0,0,0.10727933288058189,0,0)" xlink:href="#al"/><use transform="matrix(0.10727933288058189,0,0,0.10727933288058189,27.78534721607071,0)" xlink:href="#am"/><use transform="matrix(0.10727933288058189,0,0,0.10727933288058189,51.27952111691815,0)" xlink:href="#ab"/><use transform="matrix(0.10727933288058189,0,0,0.10727933288058189,72.73538769303453,0)" xlink:href="#ac"/><use transform="matrix(0.10727933288058189,0,0,0.10727933288058189,87.75449429631598,0)" xlink:href="#ab"/><use transform="matrix(0.10727933288058189,0,0,0.10727933288058189,109.21036087243236,0)" xlink:href="#aj"/><use transform="matrix(0.10727933288058189,0,0,0.10727933288058189,130.66622744854874,0)" xlink:href="#ad"/><use transform="matrix(0.10727933288058189,0,0,0.10727933288058189,143.43246806133797,0)" xlink:href="#Y"/><use transform="matrix(0.10727933288058189,0,0,0.10727933288058189,164.88833463745436,0)" xlink:href="#ac"/><use transform="matrix(0.10727933288058189,0,0,0.10727933288058189,179.90744124073584,0)" xlink:href="#an"/></g><path fill="#fff" d="M186 0v-106H76V0H24v-248h52v99h110v-99h50V0h-50" id="ao"/><path fill="#fff" d="M24-248c120-7 223 5 221 122C244-46 201 0 124 0H24v-248zM76-40c74 7 117-18 117-86 0-67-45-88-117-82v168" id="ap"/><path fill="#fff" d="M76-208v77h127v40H76V0H24v-248h183v40H76" id="aq"/><path fill="#fff" d="M169-182c-1-43-94-46-97-3 18 66 151 10 154 114 3 95-165 93-204 36-6-8-10-19-12-30l50-8c3 46 112 56 116 5-17-69-150-10-154-114-4-87 153-88 188-35 5 8 8 18 10 28" id="ar"/><g id="i"><use transform="matrix(0.114431288405954,0,0,0.114431288405954,0,0)" xlink:href="#ao"/><use transform="matrix(0.114431288405954,0,0,0.114431288405954,29.637703697142086,0)" xlink:href="#ap"/><use transform="matrix(0.114431288405954,0,0,0.114431288405954,59.27540739428417,0)" xlink:href="#aq"/><use transform="matrix(0.114431288405954,0,0,0.114431288405954,84.3358595551881,0)" xlink:href="#ar"/></g><path d="M24 0v-248h52v208h133V0H24" id="as"/><path d="M195-6C206 82 75 100 31 46c-4-6-6-13-8-21l49-6c3 16 16 24 34 25 40 0 42-37 40-79-11 22-30 35-61 35-53 0-70-43-70-97 0-56 18-96 73-97 30 0 46 14 59 34l2-30h47zm-90-29c32 0 41-27 41-63 0-35-9-62-40-62-32 0-39 29-40 63 0 36 9 62 39 62" id="at"/><g id="j"><use transform="matrix(0.08582346630446551,0,0,0.08582346630446551,0,0)" xlink:href="#as"/><use transform="matrix(0.08582346630446551,0,0,0.08582346630446551,18.795339120677948,0)" xlink:href="#ab"/><use transform="matrix(0.08582346630446551,0,0,0.08582346630446551,35.960032381571054,0)" xlink:href="#af"/><use transform="matrix(0.08582346630446551,0,0,0.08582346630446551,54.755371502249005,0)" xlink:href="#at"/><use transform="matrix(0.08582346630446551,0,0,0.08582346630446551,73.55071062292696,0)" xlink:href="#ai"/><use transform="matrix(0.08582346630446551,0,0,0.08582346630446551,92.34604974360491,0)" xlink:href="#ab"/><use transform="matrix(0.08582346630446551,0,0,0.08582346630446551,109.51074300449801,0)" xlink:href="#at"/><use transform="matrix(0.08582346630446551,0,0,0.08582346630446551,128.30608212517595,0)" xlink:href="#Y"/></g><path d="M76-208v77h127v40H76V0H24v-248h183v40H76" id="au"/><g id="k"><use transform="matrix(0.08582346630446551,0,0,0.08582346630446551,0,0)" xlink:href="#au"/><use transform="matrix(0.08582346630446551,0,0,0.08582346630446551,18.795339120677948,0)" xlink:href="#ae"/><use transform="matrix(0.08582346630446551,0,0,0.08582346630446551,27.3776857511245,0)" xlink:href="#Z"/><use transform="matrix(0.08582346630446551,0,0,0.08582346630446551,35.960032381571054,0)" xlink:href="#Y"/></g><path d="M194 0L95-120 63-95V0H30v-248h33v124l119-124h40L117-140 236 0h-42" id="av"/><path d="M68-38c1 34 0 65-14 84H32c9-13 17-26 17-46H33v-38h35" id="aw"/><path d="M137 0h-34L2-248h35l83 218 83-218h36" id="ax"/><path d="M33-154v-36h34v36H33zM33 0v-36h34V0H33" id="ay"/><g id="l"><use transform="matrix(0.07151955525372126,0,0,0.07151955525372126,0,0)" xlink:href="#av"/><use transform="matrix(0.07151955525372126,0,0,0.07151955525372126,17.164693260893102,0)" xlink:href="#aw"/><use transform="matrix(0.07151955525372126,0,0,0.07151955525372126,24.31664878626523,0)" xlink:href="#ax"/><use transform="matrix(0.07151955525372126,0,0,0.07151955525372126,40.55158782885995,0)" xlink:href="#ay"/></g><path d="M212-179c-10-28-35-45-73-45-59 0-87 40-87 99 0 60 29 101 89 101 43 0 62-24 78-52l27 14C228-24 195 4 139 4 59 4 22-46 18-125c-6-104 99-153 187-111 19 9 31 26 39 46" id="az"/><path d="M106-169C34-169 62-67 57 0H25v-261h32l-1 103c12-21 28-36 61-36 89 0 53 116 60 194h-32v-121c2-32-8-49-39-48" id="aA"/><path d="M141-36C126-15 110 5 73 4 37 3 15-17 15-53c-1-64 63-63 125-63 3-35-9-54-41-54-24 1-41 7-42 31l-33-3c5-37 33-52 76-52 45 0 72 20 72 64v82c-1 20 7 32 28 27v20c-31 9-61-2-59-35zM48-53c0 20 12 33 32 33 41-3 63-29 60-74-43 2-92-5-92 41" id="aB"/><path d="M114-163C36-179 61-72 57 0H25l-1-190h30c1 12-1 29 2 39 6-27 23-49 58-41v29" id="aC"/><path d="M96-169c-40 0-48 33-48 73s9 75 48 75c24 0 41-14 43-38l32 2c-6 37-31 61-74 61-59 0-76-41-82-99-10-93 101-131 147-64 4 7 5 14 7 22l-32 3c-4-21-16-35-41-35" id="aD"/><path d="M59-47c-2 24 18 29 38 22v24C64 9 27 4 27-40v-127H5v-23h24l9-43h21v43h35v23H59v120" id="aE"/><path d="M100-194c63 0 86 42 84 106H49c0 40 14 67 53 68 26 1 43-12 49-29l28 8c-11 28-37 45-77 45C44 4 14-33 15-96c1-61 26-98 85-98zm52 81c6-60-76-77-97-28-3 7-6 17-6 28h103" id="aF"/><g id="m"><use transform="matrix(0.07151955525372126,0,0,0.07151955525372126,0,0)" xlink:href="#az"/><use transform="matrix(0.07151955525372126,0,0,0.07151955525372126,18.523564810713808,0)" xlink:href="#aA"/><use transform="matrix(0.07151955525372126,0,0,0.07151955525372126,32.82747586145806,0)" xlink:href="#aB"/><use transform="matrix(0.07151955525372126,0,0,0.07151955525372126,47.131386912202316,0)" xlink:href="#aC"/><use transform="matrix(0.07151955525372126,0,0,0.07151955525372126,55.642213987395145,0)" xlink:href="#aB"/><use transform="matrix(0.07151955525372126,0,0,0.07151955525372126,69.9461250381394,0)" xlink:href="#aD"/><use transform="matrix(0.07151955525372126,0,0,0.07151955525372126,82.81964498380923,0)" xlink:href="#aE"/><use transform="matrix(0.07151955525372126,0,0,0.07151955525372126,89.97160050918136,0)" xlink:href="#aF"/><use transform="matrix(0.07151955525372126,0,0,0.07151955525372126,104.2755115599256,0)" xlink:href="#aC"/><use transform="matrix(0.07151955525372126,0,0,0.07151955525372126,111.35594753004402,0)" xlink:href="#aw"/></g><path d="M100-194c62-1 85 37 85 99 1 63-27 99-86 99S16-35 15-95c0-66 28-99 85-99zM99-20c44 1 53-31 53-75 0-43-8-75-51-75s-53 32-53 75 10 74 51 75" id="aG"/><path d="M84 4C-5 8 30-112 23-190h32v120c0 31 7 50 39 49 72-2 45-101 50-169h31l1 190h-30c-1-10 1-25-2-33-11 22-28 36-60 37" id="aH"/><path d="M117-194c89-4 53 116 60 194h-32v-121c0-31-8-49-39-48C34-167 62-67 57 0H25l-1-190h30c1 10-1 24 2 32 11-22 29-35 61-36" id="aI"/><g id="n"><use transform="matrix(0.07151955525372126,0,0,0.07151955525372126,0,0)" xlink:href="#az"/><use transform="matrix(0.07151955525372126,0,0,0.07151955525372126,18.523564810713808,0)" xlink:href="#aG"/><use transform="matrix(0.07151955525372126,0,0,0.07151955525372126,32.82747586145806,0)" xlink:href="#aH"/><use transform="matrix(0.07151955525372126,0,0,0.07151955525372126,47.131386912202316,0)" xlink:href="#aI"/><use transform="matrix(0.07151955525372126,0,0,0.07151955525372126,61.43529796294658,0)" xlink:href="#aE"/></g><path fill="#333" d="M67-125c0 53 21 87 73 88 37 1 54-22 65-47l45 17C233-25 199 4 140 4 58 4 20-42 15-125 8-235 124-281 211-232c18 10 29 29 36 50l-46 12c-8-25-30-41-62-41-52 0-71 34-72 86" id="aJ"/><path fill="#333" d="M110-194c64 0 96 36 96 99 0 64-35 99-97 99-61 0-95-36-95-99 0-62 34-99 96-99zm-1 164c35 0 45-28 45-65 0-40-10-65-43-65-34 0-45 26-45 65 0 36 10 65 43 65" id="aK"/><path fill="#333" d="M220-157c-53 9-28 100-34 157h-49v-107c1-27-5-49-29-50C55-147 81-57 75 0H25l-1-190h47c2 12-1 28 3 38 10-53 101-56 108 0 13-22 24-43 59-42 82 1 51 116 57 194h-49v-107c-1-25-5-48-29-50" id="aL"/><path fill="#333" d="M135-194c52 0 70 43 70 98 0 56-19 99-73 100-30 1-46-15-58-35L72 0H24l1-261h50v104c11-23 29-37 60-37zM114-30c31 0 40-27 40-66 0-37-7-63-39-63s-41 28-41 65c0 36 8 64 40 64" id="aM"/><path fill="#333" d="M25-224v-37h50v37H25zM25 0v-190h50V0H25" id="aN"/><path fill="#333" d="M135-194c87-1 58 113 63 194h-50c-7-57 23-157-34-157-59 0-34 97-39 157H25l-1-190h47c2 12-1 28 3 38 12-26 28-41 61-42" id="aO"/><g id="o"><use transform="matrix(0.10727933288058189,0,0,0.10727933288058189,0,0)" xlink:href="#aJ"/><use transform="matrix(0.10727933288058189,0,0,0.10727933288058189,27.78534721607071,0)" xlink:href="#aK"/><use transform="matrix(0.10727933288058189,0,0,0.10727933288058189,51.27952111691815,0)" xlink:href="#aL"/><use transform="matrix(0.10727933288058189,0,0,0.10727933288058189,85.60890763870435,0)" xlink:href="#aM"/><use transform="matrix(0.10727933288058189,0,0,0.10727933288058189,109.1030815395518,0)" xlink:href="#aN"/><use transform="matrix(0.10727933288058189,0,0,0.10727933288058189,119.83101482760998,0)" xlink:href="#aO"/><use transform="matrix(0.10727933288058189,0,0,0.10727933288058189,143.32518872845742,0)" xlink:href="#H"/><use transform="matrix(0.10727933288058189,0,0,0.10727933288058189,164.78105530457378,0)" xlink:href="#I"/></g><g id="p"><use transform="matrix(0.114431288405954,0,0,0.114431288405954,0,0)" xlink:href="#ao"/><use transform="matrix(0.114431288405954,0,0,0.114431288405954,29.637703697142086,0)" xlink:href="#ap"/><use transform="matrix(0.114431288405954,0,0,0.114431288405954,59.27540739428417,0)" xlink:href="#aq"/><use transform="matrix(0.114431288405954,0,0,0.114431288405954,84.3358595551881,0)" xlink:href="#ar"/></g><path d="M205 0l-28-72H64L36 0H1l101-248h38L239 0h-34zm-38-99l-47-123c-12 45-31 82-46 123h93" id="aP"/><g id="q"><use transform="matrix(0.07151955525372126,0,0,0.07151955525372126,0,0)" xlink:href="#M"/><use transform="matrix(0.07151955525372126,0,0,0.07151955525372126,15.16214571378891,0)" xlink:href="#K"/><use transform="matrix(0.07151955525372126,0,0,0.07151955525372126,35.18762118483086,0)" xlink:href="#M"/><use transform="matrix(0.07151955525372126,0,0,0.07151955525372126,48.91937579354534,0)" xlink:href="#aP"/><use transform="matrix(0.07151955525372126,0,0,0.07151955525372126,66.08406905443844,0)" xlink:href="#U"/></g><g id="r"><use transform="matrix(0.07151955525372126,0,0,0.07151955525372126,0,0)" xlink:href="#av"/><use transform="matrix(0.07151955525372126,0,0,0.07151955525372126,17.164693260893102,0)" xlink:href="#ax"/><use transform="matrix(0.07151955525372126,0,0,0.07151955525372126,33.39963230348783,0)" xlink:href="#ay"/></g><path d="M47-170H22l-4-78h33" id="aQ"/><path d="M24 0v-261h32V0H24" id="aR"/><g id="s"><use transform="matrix(0.07151955525372126,0,0,0.07151955525372126,0,0)" xlink:href="#aQ"/><use transform="matrix(0.07151955525372126,0,0,0.07151955525372126,4.863329757253046,0)" xlink:href="#M"/><use transform="matrix(0.07151955525372126,0,0,0.07151955525372126,17.665330147669152,0)" xlink:href="#aG"/><use transform="matrix(0.07151955525372126,0,0,0.07151955525372126,31.969241198413407,0)" xlink:href="#aE"/><use transform="matrix(0.07151955525372126,0,0,0.07151955525372126,39.12119672378553,0)" xlink:href="#aB"/><use transform="matrix(0.07151955525372126,0,0,0.07151955525372126,53.425107774529785,0)" xlink:href="#aR"/></g><g id="t"><use transform="matrix(0.07151955525372126,0,0,0.07151955525372126,0,0)" xlink:href="#az"/><use transform="matrix(0.07151955525372126,0,0,0.07151955525372126,18.523564810713808,0)" xlink:href="#aA"/><use transform="matrix(0.07151955525372126,0,0,0.07151955525372126,32.82747586145806,0)" xlink:href="#aB"/><use transform="matrix(0.07151955525372126,0,0,0.07151955525372126,47.131386912202316,0)" xlink:href="#aC"/><use transform="matrix(0.07151955525372126,0,0,0.07151955525372126,55.642213987395145,0)" xlink:href="#aQ"/><use transform="matrix(0.07151955525372126,0,0,0.07151955525372126,60.50554374464819,0)" xlink:href="#aw"/></g><g id="u"><use transform="matrix(0.07151955525372126,0,0,0.07151955525372126,0,0)" xlink:href="#M"/><use transform="matrix(0.07151955525372126,0,0,0.07151955525372126,15.16214571378891,0)" xlink:href="#K"/><use transform="matrix(0.07151955525372126,0,0,0.07151955525372126,35.18762118483086,0)" xlink:href="#M"/><use transform="matrix(0.07151955525372126,0,0,0.07151955525372126,48.91937579354534,0)" xlink:href="#aP"/><use transform="matrix(0.07151955525372126,0,0,0.07151955525372126,66.08406905443844,0)" xlink:href="#U"/></g><g id="v"><use transform="matrix(0.10727933288058189,0,0,0.10727933288058189,0,0)" xlink:href="#ag"/><use transform="matrix(0.10727933288058189,0,0,0.10727933288058189,27.78534721607071,0)" xlink:href="#Y"/><use transform="matrix(0.10727933288058189,0,0,0.10727933288058189,49.24121379218709,0)" xlink:href="#ah"/><use transform="matrix(0.10727933288058189,0,0,0.10727933288058189,72.73538769303453,0)" xlink:href="#ai"/><use transform="matrix(0.10727933288058189,0,0,0.10727933288058189,96.22956159388195,0)" xlink:href="#aj"/><use transform="matrix(0.10727933288058189,0,0,0.10727933288058189,117.68542816999833,0)" xlink:href="#Y"/><use transform="matrix(0.10727933288058189,0,0,0.10727933288058189,139.1412947461147,0)" xlink:href="#ac"/></g><g id="w"><use transform="matrix(0.07151955525372126,0,0,0.07151955525372126,0,0)" xlink:href="#az"/><use transform="matrix(0.07151955525372126,0,0,0.07151955525372126,18.523564810713808,0)" xlink:href="#aA"/><use transform="matrix(0.07151955525372126,0,0,0.07151955525372126,32.82747586145806,0)" xlink:href="#aB"/><use transform="matrix(0.07151955525372126,0,0,0.07151955525372126,47.131386912202316,0)" xlink:href="#aC"/><use transform="matrix(0.07151955525372126,0,0,0.07151955525372126,55.642213987395145,0)" xlink:href="#aB"/><use transform="matrix(0.07151955525372126,0,0,0.07151955525372126,69.9461250381394,0)" xlink:href="#aD"/><use transform="matrix(0.07151955525372126,0,0,0.07151955525372126,82.81964498380923,0)" xlink:href="#aE"/><use transform="matrix(0.07151955525372126,0,0,0.07151955525372126,89.97160050918136,0)" xlink:href="#aF"/><use transform="matrix(0.07151955525372126,0,0,0.07151955525372126,104.2755115599256,0)" xlink:href="#aC"/><use transform="matrix(0.07151955525372126,0,0,0.07151955525372126,111.35594753004402,0)" xlink:href="#aw"/></g><path d="M108 0H70L1-190h34L89-25l56-165h34" id="aS"/><path d="M177-190C167-65 218 103 67 71c-23-6-38-20-44-43l32-5c15 47 100 32 89-28v-30C133-14 115 1 83 1 29 1 15-40 15-95c0-56 16-97 71-98 29-1 48 16 59 35 1-10 0-23 2-32h30zM94-22c36 0 50-32 50-73 0-42-14-75-50-75-39 0-46 34-46 75s6 73 46 73" id="aT"/><path d="M145-31C134-9 116 4 85 4 32 4 16-35 15-94c0-59 17-99 70-100 32-1 48 14 60 33 0-11-1-24 2-32h30l-1 268h-32zM93-21c41 0 51-33 51-76s-8-73-50-73c-40 0-46 35-46 75s5 74 45 74" id="aU"/><path d="M179-190L93 31C79 59 56 82 12 73V49c39 6 53-20 64-50L1-190h34L92-34l54-156h33" id="aV"/><g id="x"><use transform="matrix(0.07151955525372126,0,0,0.07151955525372126,0,0)" xlink:href="#aP"/><use transform="matrix(0.07151955525372126,0,0,0.07151955525372126,16.664056374117052,0)" xlink:href="#aS"/><use transform="matrix(0.07151955525372126,0,0,0.07151955525372126,29.53757631978688,0)" xlink:href="#aT"/><use transform="matrix(0.07151955525372126,0,0,0.07151955525372126,43.841487370531134,0)" xlink:href="#aF"/><use transform="matrix(0.07151955525372126,0,0,0.07151955525372126,58.14539842127539,0)" xlink:href="#aC"/><use transform="matrix(0.07151955525372126,0,0,0.07151955525372126,66.65622549646822,0)" xlink:href="#aB"/><use transform="matrix(0.07151955525372126,0,0,0.07151955525372126,80.96013654721247,0)" xlink:href="#aT"/><use transform="matrix(0.07151955525372126,0,0,0.07151955525372126,95.26404759795672,0)" xlink:href="#aF"/><use transform="matrix(0.07151955525372126,0,0,0.07151955525372126,109.56795864870097,0)" xlink:href="#T"/><use transform="matrix(0.07151955525372126,0,0,0.07151955525372126,125.23074124926592,0)" xlink:href="#aC"/><use transform="matrix(0.07151955525372126,0,0,0.07151955525372126,133.74156832445874,0)" xlink:href="#aF"/><use transform="matrix(0.07151955525372126,0,0,0.07151955525372126,148.04547937520297,0)" xlink:href="#aU"/><use transform="matrix(0.07151955525372126,0,0,0.07151955525372126,162.34939042594726,0)" xlink:href="#aH"/><use transform="matrix(0.07151955525372126,0,0,0.07151955525372126,176.65330147669152,0)" xlink:href="#aF"/><use transform="matrix(0.07151955525372126,0,0,0.07151955525372126,190.9572125274358,0)" xlink:href="#aI"/><use transform="matrix(0.07151955525372126,0,0,0.07151955525372126,205.26112357818008,0)" xlink:href="#aD"/><use transform="matrix(0.07151955525372126,0,0,0.07151955525372126,218.1346435238499,0)" xlink:href="#aV"/></g><path d="M206 0h-36l-40-164L89 0H53L-1-190h32L70-26l43-164h34l41 164 42-164h31" id="aW"/><g id="y"><use transform="matrix(0.07151955525372126,0,0,0.07151955525372126,0,0)" xlink:href="#ax"/><use transform="matrix(0.07151955525372126,0,0,0.07151955525372126,15.734302155818677,0)" xlink:href="#aG"/><use transform="matrix(0.07151955525372126,0,0,0.07151955525372126,30.038213206562933,0)" xlink:href="#aW"/><use transform="matrix(0.07151955525372126,0,0,0.07151955525372126,48.56177801727674,0)" xlink:href="#aF"/><use transform="matrix(0.07151955525372126,0,0,0.07151955525372126,62.86568906802099,0)" xlink:href="#aR"/></g><g id="z"><use transform="matrix(0.07151955525372126,0,0,0.07151955525372126,0,0)" xlink:href="#az"/><use transform="matrix(0.07151955525372126,0,0,0.07151955525372126,18.523564810713808,0)" xlink:href="#aA"/><use transform="matrix(0.07151955525372126,0,0,0.07151955525372126,32.82747586145806,0)" xlink:href="#aB"/><use transform="matrix(0.07151955525372126,0,0,0.07151955525372126,47.131386912202316,0)" xlink:href="#aC"/><use transform="matrix(0.07151955525372126,0,0,0.07151955525372126,55.642213987395145,0)" xlink:href="#aB"/><use transform="matrix(0.07151955525372126,0,0,0.07151955525372126,69.9461250381394,0)" xlink:href="#aD"/><use transform="matrix(0.07151955525372126,0,0,0.07151955525372126,82.81964498380923,0)" xlink:href="#aE"/><use transform="matrix(0.07151955525372126,0,0,0.07151955525372126,89.97160050918136,0)" xlink:href="#aF"/><use transform="matrix(0.07151955525372126,0,0,0.07151955525372126,104.2755115599256,0)" xlink:href="#aC"/></g><g id="A"><use transform="matrix(0.07151955525372126,0,0,0.07151955525372126,0,0)" xlink:href="#T"/><use transform="matrix(0.07151955525372126,0,0,0.07151955525372126,15.662782600564958,0)" xlink:href="#aC"/><use transform="matrix(0.07151955525372126,0,0,0.07151955525372126,24.17360967575779,0)" xlink:href="#aF"/><use transform="matrix(0.07151955525372126,0,0,0.07151955525372126,38.47752072650204,0)" xlink:href="#aU"/><use transform="matrix(0.07151955525372126,0,0,0.07151955525372126,52.78143177724629,0)" xlink:href="#aH"/><use transform="matrix(0.07151955525372126,0,0,0.07151955525372126,67.08534282799054,0)" xlink:href="#aF"/><use transform="matrix(0.07151955525372126,0,0,0.07151955525372126,81.3892538787348,0)" xlink:href="#aI"/><use transform="matrix(0.07151955525372126,0,0,0.07151955525372126,95.69316492947904,0)" xlink:href="#aD"/><use transform="matrix(0.07151955525372126,0,0,0.07151955525372126,108.56668487514887,0)" xlink:href="#aV"/></g><path d="M24-231v-30h32v30H24zM24 0v-190h32V0H24" id="aX"/><g id="B"><use transform="matrix(0.07151955525372126,0,0,0.07151955525372126,0,0)" xlink:href="#az"/><use transform="matrix(0.07151955525372126,0,0,0.07151955525372126,18.523564810713808,0)" xlink:href="#aB"/><use transform="matrix(0.07151955525372126,0,0,0.07151955525372126,32.82747586145806,0)" xlink:href="#aR"/><use transform="matrix(0.07151955525372126,0,0,0.07151955525372126,38.47752072650204,0)" xlink:href="#aD"/><use transform="matrix(0.07151955525372126,0,0,0.07151955525372126,51.35104067217187,0)" xlink:href="#aH"/><use transform="matrix(0.07151955525372126,0,0,0.07151955525372126,65.65495172291612,0)" xlink:href="#aR"/><use transform="matrix(0.07151955525372126,0,0,0.07151955525372126,71.3049965879601,0)" xlink:href="#aB"/><use transform="matrix(0.07151955525372126,0,0,0.07151955525372126,85.60890763870435,0)" xlink:href="#aE"/><use transform="matrix(0.07151955525372126,0,0,0.07151955525372126,92.76086316407648,0)" xlink:href="#aX"/><use transform="matrix(0.07151955525372126,0,0,0.07151955525372126,98.41090802912046,0)" xlink:href="#aG"/><use transform="matrix(0.07151955525372126,0,0,0.07151955525372126,112.71481907986471,0)" xlink:href="#aI"/></g><path d="M175 0L67-191c6 58 2 128 3 191H24v-248h59L193-55c-6-58-2-129-3-193h46V0h-61" id="aY"/><g id="C"><use transform="matrix(0.10727933288058189,0,0,0.10727933288058189,0,0)" xlink:href="#aY"/><use transform="matrix(0.10727933288058189,0,0,0.10727933288058189,27.78534721607071,0)" xlink:href="#W"/><use transform="matrix(0.10727933288058189,0,0,0.10727933288058189,51.27952111691815,0)" xlink:href="#af"/><use transform="matrix(0.10727933288058189,0,0,0.10727933288058189,74.77369501776559,0)" xlink:href="#ak"/><use transform="matrix(0.10727933288058189,0,0,0.10727933288058189,87.53993563055484,0)" xlink:href="#V"/><use transform="matrix(0.10727933288058189,0,0,0.10727933288058189,110.39043353411878,0)" xlink:href="#W"/><use transform="matrix(0.10727933288058189,0,0,0.10727933288058189,133.88460743496623,0)" xlink:href="#X"/><use transform="matrix(0.10727933288058189,0,0,0.10727933288058189,163.92282064152914,0)" xlink:href="#Y"/><use transform="matrix(0.10727933288058189,0,0,0.10727933288058189,185.3786872176455,0)" xlink:href="#Z"/></g><path d="M16-82v-28h88v28H16" id="aZ"/><g id="D"><use transform="matrix(0.07151955525372126,0,0,0.07151955525372126,0,0)" xlink:href="#O"/><use transform="matrix(0.07151955525372126,0,0,0.07151955525372126,18.523564810713808,0)" xlink:href="#aG"/><use transform="matrix(0.07151955525372126,0,0,0.07151955525372126,32.82747586145806,0)" xlink:href="#aI"/><use transform="matrix(0.07151955525372126,0,0,0.07151955525372126,47.131386912202316,0)" xlink:href="#aZ"/><use transform="matrix(0.07151955525372126,0,0,0.07151955525372126,55.642213987395145,0)" xlink:href="#ax"/><use transform="matrix(0.07151955525372126,0,0,0.07151955525372126,71.37651614321382,0)" xlink:href="#aG"/><use transform="matrix(0.07151955525372126,0,0,0.07151955525372126,85.68042719395808,0)" xlink:href="#aW"/><use transform="matrix(0.07151955525372126,0,0,0.07151955525372126,104.20399200467189,0)" xlink:href="#aF"/><use transform="matrix(0.07151955525372126,0,0,0.07151955525372126,118.50790305541612,0)" xlink:href="#aR"/></g></defs></g></svg>